<?xml version="1.0" encoding="utf-8"?>
<svg id="master-artboard" viewBox="0 0 296.7148132324219 392.9602966308594" xmlns="http://www.w3.org/2000/svg" width="296.7148132324219px" height="392.9602966308594px" version="1.1" style="shape-rendering:geometricPrecision; text-rendering:geometricPrecision; image-rendering:optimizeQuality; fill-rule:evenodd; clip-rule:evenodd"><defs><style id="ee-google-fonts">@import url(https://fonts.googleapis.com/css?family=Salsa:400);</style><path id="text-path-0" d="M 19.12783432006836 184.8925323486328 A 100 85 0 0 1 250.1625213623047 178.64752197265625 A 100 85 0 0 1 19.12783432006836 184.8925323486328 Z" style="fill: none; stroke: red; stroke-width: 2;"/><path id="path-1" d="M 19.12783432006836 184.8925323486328 A 100 -85 0 0 0 250.27931213378906 184.8925323486328 A 100 -85 0 0 0 19.12783432006836 184.8925323486328" style="fill: none; stroke: red; stroke-width: 2;"/></defs><rect id="ee-background" x="0" y="0" width="296.7148132324219" height="392.9602966308594" style="fill: white; fill-opacity: 0; pointer-events: none;"/><g transform="matrix(1, 0, 0, 1, -96.24549102783203, -73.30325317382812)"><g transform="matrix(1, 0, 0, 1, 1.6786320209503174, 0)"><g transform="matrix(1, 0, 0, 1, -2.238267183303833, 0)"><g transform="matrix(1, 0, 0, 1, -36.768768310546875, 1.1191335916519165)"><g transform="matrix(1, 0, 0, 1, -15.108304023742676, -11.191250801086419)"><path class="st3" d="M597.4,731.8h-52.3c-5.8,0-10.4-4.7-10.4-10.4v-86.5c0-5.8,4.7-10.4,10.4-10.4h52.3c5.8,0,10.4,4.7,10.4,10.4&#10;&#9;&#9;&#9;v86.5C607.9,727.1,603.2,731.8,597.4,731.8z" style="fill: rgb(241, 95, 93);" transform="matrix(1.6666667461395264, 0, 0, 1.6666667461395264, -588.1528930664062, -755.8081665039062)"/><g transform="matrix(0.22858157753944397, 0, 0, 0.22858157753944397, 311.5907897949219, 339.8802795410156)"><g transform="matrix(1, 0, 0, 1, 78, -22)"><path class="st0" d="M311.2,145.3c-9.9-1.1-26.5-2.9-30.4-6c-2.4-3.5-4.6-10.7-6.8-17.6c-2.9-9.5-6.3-20.3-12.1-29.1&#10;&#9;&#9;&#9;c-10.2-15.4-23.9-18.7-33.6-18.7c-1.5,0-3,0.1-4.6,0.2c-16.6,1.6-25.6,19.2-35.2,37.9c-4.4,8.5-12.4,24.2-17,26.5&#10;&#9;&#9;&#9;c-3.9,0.9-9.6,1.9-16.2,3c-13,2.3-29.3,5.1-42.6,9.1c-8.9,2.7-32.4,9.7-32.4,29c0,13.4,10.2,25.7,22,40c8,9.6,17,20.5,19.2,28.2&#10;&#9;&#9;&#9;c1.8,6.4,0.7,24.4-0.2,38.9c-2.2,35.1-4,62.9,14.2,72c3.3,1.7,7.1,2.5,11.1,2.5c13.1,0,27.5-8.8,44.1-19&#10;&#9;&#9;&#9;c8.9-5.5,23.8-14.6,28.9-14.9c4.3,0.9,15.1,7.3,23,12c17.4,10.2,37.1,21.8,54.3,21.8c0,0,0,0,0,0c6.4,0,12.2-1.5,17.1-4.6&#10;&#9;&#9;&#9;c20.9-12.8,15.1-42.5,10.5-66.3c-1.6-8.2-4-20.6-3.2-24.6c1.9-3.5,7.9-11,13.1-17.6c19.9-25,42.5-53.4,34.2-76.6&#10;&#9;&#9;&#9;C361.6,150.9,335.9,148,311.2,145.3z" style="fill: rgb(209, 211, 212);" transform="matrix(1, 0, 0, 1, -71, -42)"/><path class="st1" d="M304.5,140.6c-9.9-1.1-26.5-2.9-30.4-6c-2.4-3.5-4.6-10.7-6.8-17.6c-2.9-9.5-6.3-20.3-12.1-29.1&#10;&#9;&#9;&#9;c-10.2-15.4-23.9-18.7-33.6-18.7c-1.5,0-3,0.1-4.6,0.2c-16.6,1.6-25.6,19.2-35.2,37.9c-4.4,8.5-12.4,24.2-17,26.5&#10;&#9;&#9;&#9;c-3.9,0.9-9.6,1.9-16.2,3c-13,2.3-29.3,5.1-42.6,9.1c-8.9,2.7-32.4,9.7-32.4,29c0,13.4,10.2,25.7,22,40c8,9.6,17,20.5,19.2,28.2&#10;&#9;&#9;&#9;c1.8,6.4,0.7,24.4-0.2,38.9c-2.2,35.1-4,62.9,14.2,72c3.3,1.7,7.1,2.5,11.1,2.5c13.1,0,27.5-8.8,44.1-19&#10;&#9;&#9;&#9;c8.9-5.5,23.8-14.6,28.9-14.9c4.3,0.9,15.1,7.3,23,12c17.4,10.2,37.1,21.8,54.3,21.8c0,0,0,0,0,0c6.4,0,12.2-1.5,17.1-4.6&#10;&#9;&#9;&#9;c20.9-12.8,15.1-42.5,10.5-66.3c-1.6-8.2-4-20.6-3.2-24.6c1.9-3.5,7.9-11,13.1-17.6c19.9-25,42.5-53.4,34.2-76.6&#10;&#9;&#9;&#9;C354.9,146.2,329.3,143.3,304.5,140.6z" style="fill: rgb(255, 255, 255);" transform="matrix(1, 0, 0, 1, -71, -42)"/><path class="st4" d="M262.2,143.6c-12.5-17.2-10.9-62.5-43.8-59.4c-17.2,1.6-29.7,59.4-50,64.1c-20.3,4.7-79.7,10.9-79.7,26.6&#10;&#9;&#9;&#9;s34.4,42.2,40.6,64.1c6.3,21.9-9.4,93.8,6.3,101.6c15.6,7.8,60.9-35.9,79.7-32.8c18.8,3.1,64.1,43.8,84.4,31.3&#10;&#9;&#9;&#9;c20.3-12.5-6.3-68.8,1.6-84.4c7.8-15.6,54.7-60.9,46.9-82.8C340.3,149.9,274.7,160.8,262.2,143.6z M276.2,243.7&#10;&#9;&#9;&#9;c-12.5,20.3,15.6,53.1,4.7,65.6c-10.9,12.5-37.5-18.8-62.5-28.1c-25-9.4-53.1,39.1-67.2,28.1c-14.1-10.9,18.8-56.3,12.5-78.1&#10;&#9;&#9;&#9;s-40.6-26.6-40.6-45.3c0-18.8,46.9-14.1,67.2-20.3c20.3-6.3,15.6-43.8,32.8-43.8c15.6,0,14.1,31.3,20.3,40.6&#10;&#9;&#9;&#9;c6.3,9.4,62.5,4.7,71.9,23.4C324.7,204.6,288.7,223.3,276.2,243.7z" style="fill: rgb(248, 151, 29);" transform="matrix(1, 0, 0, 1, -71, -42)"/><path class="st5" d="M243.4,162.4c-6.3-9.4-4.7-40.6-20.3-40.6c-17.3,0-12.5,37.5-32.8,43.8c-20.3,6.3-67.2,1.6-67.2,20.3&#10;&#9;&#9;&#9;c0,18.8,34.4,23.4,40.6,45.3s-26.6,67.2-12.5,78.1c14.1,10.9,42.2-37.5,67.2-28.1c25,9.4,51.6,40.6,62.5,28.1&#10;&#9;&#9;&#9;c10.9-12.5-17.2-45.3-4.7-65.6c12.5-20.3,48.4-39.1,39.1-57.8C305.9,167.1,249.7,171.8,243.4,162.4z" style="fill: rgb(255, 201, 7);" transform="matrix(1, 0, 0, 1, -71, -42)"/></g></g></g><g transform="matrix(1, 0, 0, 1, 0, 0)"><g transform="matrix(1, 0, 0, 1, 0, 0)"><g transform="matrix(1, 0, 0, 1, -4.476534366607666, 0.5595670938491821)"><path class="st7" d="M560.9,665.3h-52.3c-5.8,0-10.4-4.7-10.4-10.4v-86.5c0-5.8,4.7-10.4,10.4-10.4h52.3c5.8,0,10.4,4.7,10.4,10.4&#10;&#9;&#9;&#9;v86.5C571.3,660.6,566.6,665.3,560.9,665.3z" style="fill: rgb(241, 95, 93);" transform="matrix(1.6666667461395264, 0, 0, 1.6666667461395264, -672.087890625, -845.3388061523438)"/><g transform="matrix(0.22858157753944397, 0, 0, 0.22858157753944397, 166.8211517333984, 139.51629638671875)"><g transform="matrix(1, 0, 0, 1, 78, -22)"><path class="st0" d="M311.2,145.3c-9.9-1.1-26.5-2.9-30.4-6c-2.4-3.5-4.6-10.7-6.8-17.6c-2.9-9.5-6.3-20.3-12.1-29.1&#10;&#9;&#9;&#9;c-10.2-15.4-23.9-18.7-33.6-18.7c-1.5,0-3,0.1-4.6,0.2c-16.6,1.6-25.6,19.2-35.2,37.9c-4.4,8.5-12.4,24.2-17,26.5&#10;&#9;&#9;&#9;c-3.9,0.9-9.6,1.9-16.2,3c-13,2.3-29.3,5.1-42.6,9.1c-8.9,2.7-32.4,9.7-32.4,29c0,13.4,10.2,25.7,22,40c8,9.6,17,20.5,19.2,28.2&#10;&#9;&#9;&#9;c1.8,6.4,0.7,24.4-0.2,38.9c-2.2,35.1-4,62.9,14.2,72c3.3,1.7,7.1,2.5,11.1,2.5c13.1,0,27.5-8.8,44.1-19&#10;&#9;&#9;&#9;c8.9-5.5,23.8-14.6,28.9-14.9c4.3,0.9,15.1,7.3,23,12c17.4,10.2,37.1,21.8,54.3,21.8c0,0,0,0,0,0c6.4,0,12.2-1.5,17.1-4.6&#10;&#9;&#9;&#9;c20.9-12.8,15.1-42.5,10.5-66.3c-1.6-8.2-4-20.6-3.2-24.6c1.9-3.5,7.9-11,13.1-17.6c19.9-25,42.5-53.4,34.2-76.6&#10;&#9;&#9;&#9;C361.6,150.9,335.9,148,311.2,145.3z" style="fill: rgb(209, 211, 212);" transform="matrix(1, 0, 0, 1, -71, -42)"/><path class="st1" d="M304.5,140.6c-9.9-1.1-26.5-2.9-30.4-6c-2.4-3.5-4.6-10.7-6.8-17.6c-2.9-9.5-6.3-20.3-12.1-29.1&#10;&#9;&#9;&#9;c-10.2-15.4-23.9-18.7-33.6-18.7c-1.5,0-3,0.1-4.6,0.2c-16.6,1.6-25.6,19.2-35.2,37.9c-4.4,8.5-12.4,24.2-17,26.5&#10;&#9;&#9;&#9;c-3.9,0.9-9.6,1.9-16.2,3c-13,2.3-29.3,5.1-42.6,9.1c-8.9,2.7-32.4,9.7-32.4,29c0,13.4,10.2,25.7,22,40c8,9.6,17,20.5,19.2,28.2&#10;&#9;&#9;&#9;c1.8,6.4,0.7,24.4-0.2,38.9c-2.2,35.1-4,62.9,14.2,72c3.3,1.7,7.1,2.5,11.1,2.5c13.1,0,27.5-8.8,44.1-19&#10;&#9;&#9;&#9;c8.9-5.5,23.8-14.6,28.9-14.9c4.3,0.9,15.1,7.3,23,12c17.4,10.2,37.1,21.8,54.3,21.8c0,0,0,0,0,0c6.4,0,12.2-1.5,17.1-4.6&#10;&#9;&#9;&#9;c20.9-12.8,15.1-42.5,10.5-66.3c-1.6-8.2-4-20.6-3.2-24.6c1.9-3.5,7.9-11,13.1-17.6c19.9-25,42.5-53.4,34.2-76.6&#10;&#9;&#9;&#9;C354.9,146.2,329.3,143.3,304.5,140.6z" style="fill: rgb(255, 255, 255);" transform="matrix(1, 0, 0, 1, -71, -42)"/><path class="st4" d="M262.2,143.6c-12.5-17.2-10.9-62.5-43.8-59.4c-17.2,1.6-29.7,59.4-50,64.1c-20.3,4.7-79.7,10.9-79.7,26.6&#10;&#9;&#9;&#9;s34.4,42.2,40.6,64.1c6.3,21.9-9.4,93.8,6.3,101.6c15.6,7.8,60.9-35.9,79.7-32.8c18.8,3.1,64.1,43.8,84.4,31.3&#10;&#9;&#9;&#9;c20.3-12.5-6.3-68.8,1.6-84.4c7.8-15.6,54.7-60.9,46.9-82.8C340.3,149.9,274.7,160.8,262.2,143.6z M276.2,243.7&#10;&#9;&#9;&#9;c-12.5,20.3,15.6,53.1,4.7,65.6c-10.9,12.5-37.5-18.8-62.5-28.1c-25-9.4-53.1,39.1-67.2,28.1c-14.1-10.9,18.8-56.3,12.5-78.1&#10;&#9;&#9;&#9;s-40.6-26.6-40.6-45.3c0-18.8,46.9-14.1,67.2-20.3c20.3-6.3,15.6-43.8,32.8-43.8c15.6,0,14.1,31.3,20.3,40.6&#10;&#9;&#9;&#9;c6.3,9.4,62.5,4.7,71.9,23.4C324.7,204.6,288.7,223.3,276.2,243.7z" style="fill: rgb(248, 151, 29);" transform="matrix(1, 0, 0, 1, -71, -42)"/><path class="st5" d="M243.4,162.4c-6.3-9.4-4.7-40.6-20.3-40.6c-17.3,0-12.5,37.5-32.8,43.8c-20.3,6.3-67.2,1.6-67.2,20.3&#10;&#9;&#9;&#9;c0,18.8,34.4,23.4,40.6,45.3s-26.6,67.2-12.5,78.1c14.1,10.9,42.2-37.5,67.2-28.1c25,9.4,51.6,40.6,62.5,28.1&#10;&#9;&#9;&#9;c10.9-12.5-17.2-45.3-4.7-65.6c12.5-20.3,48.4-39.1,39.1-57.8C305.9,167.1,249.7,171.8,243.4,162.4z" style="fill: rgb(255, 201, 7);" transform="matrix(1, 0, 0, 1, -71, -42)"/></g></g></g><g transform="matrix(1, 0, 0, 1, -24.061372756958008, -0.039156582206487656)"><path class="st3" d="M597.4,731.8h-52.3c-5.8,0-10.4-4.7-10.4-10.4v-86.5c0-5.8,4.7-10.4,10.4-10.4h52.3c5.8,0,10.4,4.7,10.4,10.4&#10;&#9;&#9;&#9;v86.5C607.9,727.1,603.2,731.8,597.4,731.8z" style="fill: rgb(130, 186, 189);" transform="matrix(1.6666667461395264, 0, 0, 1.6666667461395264, -579.1998291015625, -955.5734252929688)"/><g transform="matrix(0.31114906072616577, 0, 0, 0.31114906072616577, 163.66825866699216, -20.538366317749016)"><linearGradient id="gradient-3" gradientUnits="userSpaceOnUse" x1="600.7574" y1="541.95" x2="731.6191" y2="697.9048">
	<stop offset="0" style="stop-color:#FFFFFF"/>
	<stop offset="0.4746" style="stop-color:#FDFDFD"/>
	<stop offset="0.6456" style="stop-color:#F6F6F6"/>
	<stop offset="0.7675" style="stop-color:#EBEBEB"/>
	<stop offset="0.866" style="stop-color:#DADADA"/>
	<stop offset="0.9494" style="stop-color:#C4C4C4"/>
	<stop offset="1" style="stop-color:#B3B3B3"/>
</linearGradient><linearGradient id="gradient-4" gradientUnits="userSpaceOnUse" x1="715.5851" y1="670.519" x2="733.4175" y2="688.3514">
	<stop offset="0" style="stop-color:#FFFFFF"/>
	<stop offset="0.1623" style="stop-color:#FAFAFA"/>
	<stop offset="0.3444" style="stop-color:#EDEDED"/>
	<stop offset="0.536" style="stop-color:#D6D6D6"/>
	<stop offset="0.7331" style="stop-color:#B7B7B7"/>
	<stop offset="0.7596" style="stop-color:#B3B3B3"/>
</linearGradient><g transform="matrix(1, 0, 0, 1, 0, 0)"><path class="st32" d="M698.1,723.7c-8.2,2.2-16.8,3.4-25.7,3.4c-55,0-99.7-44.6-99.7-99.7c0-55,44.6-99.7,99.7-99.7&#10;&#9;c55,0,99.7,44.6,99.7,99.7c0,8.9-1.2,17.5-3.4,25.7l14.7-14.7c0.4-3.6,0.5-7.3,0.5-11c0-61.5-50-111.5-111.5-111.5&#10;&#9;c-61.5,0-111.5,50-111.5,111.5c0,61.5,50,111.5,111.5,111.5c3.7,0,7.4-0.2,11-0.5L698.1,723.7z" style="fill: url('#gradient-3');" transform="matrix(1, 0, 0, 1, 0, 0)"/><path class="st33" d="M768.7,653.1c2.2-8.2,3.4-16.8,3.4-25.7c0-55-44.6-99.7-99.7-99.7c-55,0-99.7,44.6-99.7,99.7&#10;&#9;c0,55,44.6,99.7,99.7,99.7c8.9,0,17.5-1.2,25.7-3.4L768.7,653.1z" style="fill: rgb(250, 164, 28);" transform="matrix(1, 0, 0, 1, 0, 0)"/><g transform="matrix(1, 0, 0, 1, 0, 0)">
	<g>
		<path class="st37" d="M761.2,634.3c-1.1-0.1-2-1-1.9-2.1c0.1-1.1,1-2,2.1-1.9c1.1,0,2,1,2,2.1&#10;&#9;&#9;&#9;C763.3,633.5,762.3,634.4,761.2,634.3z" style="fill: rgb(255, 255, 255);"/>
	</g>
	<g>
		<path class="st37" d="M760.4,641.2c-1.1-0.2-1.9-1.2-1.7-2.3c0.1-1.1,1.2-1.9,2.3-1.8s1.9,1.1,1.8,2.3&#10;&#9;&#9;&#9;C762.5,640.5,761.5,641.3,760.4,641.2z" style="fill: rgb(255, 255, 255);"/>
	</g>
	<g>
		<path class="st37" d="M681.1,716c-0.1-1.1,0.7-2.1,1.8-2.2c1.1-0.1,2.1,0.6,2.3,1.8c0.2,1.1-0.6,2.1-1.8,2.3&#10;&#9;&#9;&#9;C682.2,717.9,681.2,717.1,681.1,716z" style="fill: rgb(255, 255, 255);"/>
	</g>
	<g>
		<path class="st37" d="M674.2,716.4c0-1.1,0.9-2,1.9-2.1c1.1,0,2,0.8,2.1,1.9c0.1,1.1-0.8,2.1-1.9,2.1&#10;&#9;&#9;&#9;C675.1,718.4,674.2,717.5,674.2,716.4z" style="fill: rgb(255, 255, 255);"/>
	</g>
	<g>
		<path class="st37" d="M667.3,716.3c0.1-1.1,1-2,2.1-1.9c1.1,0,2,1,2,2.1s-1,2-2.1,2C668.1,718.4,667.2,717.4,667.3,716.3z" style="fill: rgb(255, 255, 255);"/>
	</g>
	<g>
		<path class="st37" d="M660.4,715.6c0.2-1.1,1.2-1.9,2.2-1.8c1.1,0.2,1.9,1.1,1.8,2.2c-0.1,1.1-1.1,2-2.2,1.8&#10;&#9;&#9;&#9;C661,717.7,660.2,716.7,660.4,715.6z" style="fill: rgb(255, 255, 255);"/>
	</g>
	<g>
		<path class="st37" d="M653.6,714.4c0.2-1.1,1.3-1.8,2.4-1.6c1.1,0.2,1.8,1.2,1.6,2.3c-0.2,1.1-1.2,1.8-2.4,1.6&#10;&#9;&#9;&#9;C654.1,716.6,653.3,715.5,653.6,714.4z" style="fill: rgb(255, 255, 255);"/>
	</g>
	<g>
		<path class="st37" d="M646.9,712.7c0.3-1.1,1.4-1.7,2.5-1.4c1,0.3,1.7,1.4,1.4,2.5c-0.3,1.1-1.4,1.8-2.5,1.4&#10;&#9;&#9;&#9;C647.2,714.9,646.6,713.8,646.9,712.7z" style="fill: rgb(255, 255, 255);"/>
	</g>
	<g>
		<path class="st37" d="M640.4,710.5c0.4-1.1,1.6-1.5,2.6-1.2c1,0.3,1.6,1.5,1.2,2.6c-0.4,1.1-1.5,1.6-2.6,1.3&#10;&#9;&#9;&#9;C640.5,712.7,640,711.5,640.4,710.5z" style="fill: rgb(255, 255, 255);"/>
	</g>
	<g>
		<path class="st37" d="M634,707.7c0.5-1,1.7-1.5,2.7-1c1,0.4,1.5,1.7,1,2.7s-1.6,1.5-2.7,1C634,709.9,633.5,708.7,634,707.7z" style="fill: rgb(255, 255, 255);"/>
	</g>
	<g>
		<path class="st37" d="M627.9,704.5c0.6-1,1.8-1.3,2.7-0.8c1,0.5,1.3,1.7,0.8,2.7c-0.5,1-1.8,1.4-2.8,0.8&#10;&#9;&#9;&#9;C627.7,706.7,627.4,705.5,627.9,704.5z" style="fill: rgb(255, 255, 255);"/>
	</g>
	<g>
		<path class="st37" d="M622.1,700.8c0.6-0.9,1.9-1.1,2.8-0.6c0.9,0.6,1.2,1.8,0.6,2.8c-0.6,1-1.8,1.2-2.8,0.6&#10;&#9;&#9;&#9;C621.7,703,621.4,701.7,622.1,700.8z" style="fill: rgb(255, 255, 255);"/>
	</g>
	<g>
		<path class="st37" d="M616.5,696.7c0.7-0.9,2-1,2.8-0.3c0.8,0.7,1,1.9,0.4,2.8c-0.7,0.9-2,1.1-2.9,0.4&#10;&#9;&#9;&#9;C616,698.8,615.8,697.5,616.5,696.7z" style="fill: rgb(255, 255, 255);"/>
	</g>
	<g>
		<path class="st37" d="M611.3,692.1c0.8-0.8,2-0.8,2.8-0.1c0.8,0.7,0.9,2,0.2,2.8c-0.7,0.9-2,0.9-2.9,0.2&#10;&#9;&#9;&#9;C610.6,694.3,610.6,692.9,611.3,692.1z" style="fill: rgb(255, 255, 255);"/>
	</g>
	<g>
		<path class="st37" d="M606.5,687.2c0.8-0.7,2.1-0.7,2.9,0.1c0.8,0.8,0.7,2.1-0.1,2.9c-0.8,0.8-2.1,0.8-2.9-0.1&#10;&#9;&#9;&#9;C605.6,689.3,605.7,688,606.5,687.2z" style="fill: rgb(255, 255, 255);"/>
	</g>
	<g>
		<path class="st37" d="M602.1,681.9c0.9-0.7,2.2-0.5,2.8,0.3c0.7,0.9,0.6,2.1-0.3,2.8c-0.8,0.7-2.2,0.6-2.9-0.3&#10;&#9;&#9;&#9;C601,683.9,601.2,682.6,602.1,681.9z" style="fill: rgb(255, 255, 255);"/>
	</g>
	<g>
		<path class="st37" d="M598,676.3c0.9-0.6,2.2-0.3,2.8,0.5c0.6,0.9,0.4,2.1-0.5,2.8s-2.2,0.4-2.8-0.5&#10;&#9;&#9;&#9;C596.8,678.2,597.1,676.9,598,676.3z" style="fill: rgb(255, 255, 255);"/>
	</g>
	<g>
		<path class="st37" d="M594.5,670.4c1-0.5,2.2-0.2,2.8,0.7c0.5,1,0.2,2.2-0.7,2.8c-1,0.6-2.2,0.3-2.8-0.7&#10;&#9;&#9;&#9;C593.2,672.2,593.5,670.9,594.5,670.4z" style="fill: rgb(255, 255, 255);"/>
	</g>
	<g>
		<path class="st37" d="M591.4,664.2c1-0.5,2.2,0,2.7,1c0.5,1,0.1,2.2-0.9,2.7c-1,0.5-2.2,0.1-2.7-0.9&#10;&#9;&#9;&#9;C589.9,665.9,590.4,664.7,591.4,664.2z" style="fill: rgb(255, 255, 255);"/>
	</g>
	<g>
		<path class="st37" d="M588.7,657.9c1-0.4,2.2,0.1,2.6,1.2c0.4,1-0.1,2.2-1.1,2.6c-1,0.4-2.2-0.1-2.6-1.2&#10;&#9;&#9;&#9;C587.2,659.4,587.7,658.2,588.7,657.9z" style="fill: rgb(255, 255, 255);"/>
	</g>
	<g>
		<path class="st37" d="M586.7,651.3c1.1-0.3,2.2,0.3,2.5,1.4c0.3,1.1-0.2,2.2-1.3,2.5c-1,0.3-2.3-0.2-2.6-1.3&#10;&#9;&#9;&#9;C585,652.7,585.6,651.6,586.7,651.3z" style="fill: rgb(255, 255, 255);"/>
	</g>
	<g>
		<path class="st37" d="M585.1,644.6c1.1-0.2,2.1,0.5,2.4,1.6c0.2,1.1-0.4,2.1-1.5,2.4c-1.1,0.3-2.2-0.4-2.4-1.5&#10;&#9;&#9;&#9;C583.2,645.9,584,644.8,585.1,644.6z" style="fill: rgb(255, 255, 255);"/>
	</g>
	<g>
		<path class="st37" d="M584,637.7c1.1-0.1,2.1,0.7,2.3,1.7c0.1,1.1-0.6,2.1-1.7,2.3c-1.1,0.2-2.2-0.6-2.3-1.7&#10;&#9;&#9;&#9;C582.1,638.9,582.9,637.9,584,637.7z" style="fill: rgb(255, 255, 255);"/>
	</g>
	<g>
		<path class="st37" d="M583.5,630.8c1.1,0,2,0.8,2.1,1.9c0.1,1.1-0.8,2.1-1.9,2.1c-1.1,0.1-2.1-0.8-2.2-1.9&#10;&#9;&#9;&#9;C581.4,631.8,582.4,630.9,583.5,630.8z" style="fill: rgb(255, 255, 255);"/>
	</g>
	<g>
		<path class="st37" d="M583.5,623.9c1.1,0,2,1,2,2.1c0,1.1-0.9,2-2,2c-1.1,0-2-0.9-2-2.1C581.4,624.8,582.4,623.9,583.5,623.9z" style="fill: rgb(255, 255, 255);"/>
	</g>
	<g>
		<path class="st37" d="M584,617.1c1.1,0.1,1.9,1.1,1.8,2.2c-0.1,1.1-1.1,1.9-2.2,1.8s-2-1.1-1.9-2.2&#10;&#9;&#9;&#9;C581.8,617.7,582.9,616.9,584,617.1z" style="fill: rgb(255, 255, 255);"/>
	</g>
	<g>
		<path class="st37" d="M585.1,610.2c1.1,0.2,1.8,1.3,1.6,2.3c-0.2,1.1-1.2,1.8-2.3,1.7c-1.1-0.2-1.9-1.2-1.7-2.3&#10;&#9;&#9;&#9;C582.9,610.8,584,610,585.1,610.2z" style="fill: rgb(255, 255, 255);"/>
	</g>
	<g>
		<path class="st37" d="M586.7,603.5c1.1,0.3,1.7,1.4,1.4,2.5c-0.2,1.1-1.3,1.7-2.4,1.5c-1.1-0.2-1.8-1.4-1.5-2.5&#10;&#9;&#9;&#9;C584.4,603.9,585.6,603.2,586.7,603.5z" style="fill: rgb(255, 255, 255);"/>
	</g>
	<g>
		<path class="st37" d="M588.7,596.9c1,0.4,1.6,1.5,1.3,2.6c-0.3,1-1.5,1.6-2.6,1.3c-1.1-0.3-1.6-1.5-1.3-2.6&#10;&#9;&#9;&#9;C586.5,597.1,587.7,596.5,588.7,596.9z" style="fill: rgb(255, 255, 255);"/>
	</g>
	<g>
		<path class="st37" d="M591.4,590.6c1,0.5,1.5,1.7,1,2.6c-0.4,1-1.6,1.5-2.6,1.1c-1-0.4-1.6-1.6-1.1-2.7&#10;&#9;&#9;&#9;C589.2,590.6,590.4,590.1,591.4,590.6z" style="fill: rgb(255, 255, 255);"/>
	</g>
	<g>
		<path class="st37" d="M594.5,584.4c1,0.5,1.3,1.8,0.8,2.7c-0.5,1-1.7,1.4-2.7,0.9c-1-0.5-1.4-1.7-0.9-2.7&#10;&#9;&#9;&#9;C592.2,584.2,593.5,583.8,594.5,584.4z" style="fill: rgb(255, 255, 255);"/>
	</g>
	<g>
		<path class="st37" d="M598,578.5c0.9,0.6,1.2,1.9,0.6,2.8c-0.6,0.9-1.8,1.2-2.8,0.7c-1-0.6-1.3-1.8-0.7-2.8&#10;&#9;&#9;&#9;C595.9,578.1,597.1,577.9,598,578.5z" style="fill: rgb(255, 255, 255);"/>
	</g>
	<g>
		<path class="st37" d="M602.1,572.9c0.9,0.7,1,1.9,0.4,2.8c-0.6,0.9-1.9,1.1-2.8,0.5c-0.9-0.6-1.1-1.9-0.5-2.9&#10;&#9;&#9;&#9;C599.9,572.3,601.2,572.2,602.1,572.9z" style="fill: rgb(255, 255, 255);"/>
	</g>
	<g>
		<path class="st37" d="M606.5,567.6c0.8,0.8,0.9,2,0.2,2.9c-0.7,0.8-2,0.9-2.9,0.2s-1-2-0.2-2.9&#10;&#9;&#9;&#9;C604.4,566.9,605.7,566.8,606.5,567.6z" style="fill: rgb(255, 255, 255);"/>
	</g>
	<g>
		<path class="st37" d="M611.3,562.6c0.8,0.8,0.7,2.1,0,2.8c-0.8,0.8-2,0.8-2.8,0c-0.8-0.8-0.8-2.1,0-2.9&#10;&#9;&#9;&#9;C609.3,561.8,610.6,561.8,611.3,562.6z" style="fill: rgb(255, 255, 255);"/>
	</g>
	<g>
		<path class="st37" d="M616.5,558.1c0.7,0.9,0.6,2.1-0.3,2.8c-0.8,0.7-2.1,0.6-2.8-0.2c-0.7-0.8-0.6-2.1,0.2-2.9&#10;&#9;&#9;&#9;C614.5,557.1,615.8,557.2,616.5,558.1z" style="fill: rgb(255, 255, 255);"/>
	</g>
	<g>
		<path class="st37" d="M622.1,554c0.6,0.9,0.4,2.2-0.5,2.8c-0.9,0.6-2.2,0.4-2.8-0.4c-0.7-0.9-0.5-2.2,0.5-2.8&#10;&#9;&#9;&#9;C620.2,552.8,621.4,553,622.1,554z" style="fill: rgb(255, 255, 255);"/>
	</g>
	<g>
		<path class="st37" d="M627.9,550.3c0.6,1,0.2,2.2-0.7,2.7c-0.9,0.6-2.2,0.3-2.8-0.6c-0.6-0.9-0.3-2.2,0.7-2.8&#10;&#9;&#9;&#9;C626.1,549,627.4,549.3,627.9,550.3z" style="fill: rgb(255, 255, 255);"/>
	</g>
	<g>
		<path class="st37" d="M634,547.1c0.5,1,0.1,2.2-0.9,2.7c-1,0.5-2.2,0.1-2.7-0.9c-0.5-1-0.1-2.2,0.9-2.7&#10;&#9;&#9;&#9;C632.3,545.6,633.5,546,634,547.1z" style="fill: rgb(255, 255, 255);"/>
	</g>
	<g>
		<path class="st37" d="M640.4,544.3c0.4,1-0.1,2.2-1.1,2.6c-1,0.4-2.2,0-2.6-1.1c-0.4-1,0-2.3,1.1-2.7&#10;&#9;&#9;&#9;C638.8,542.8,640,543.3,640.4,544.3z" style="fill: rgb(255, 255, 255);"/>
	</g>
	<g>
		<path class="st37" d="M646.9,542.1c0.3,1.1-0.3,2.2-1.3,2.5c-1,0.4-2.2-0.2-2.5-1.3c-0.4-1.1,0.2-2.2,1.3-2.6&#10;&#9;&#9;&#9;C645.4,540.4,646.6,541,646.9,542.1z" style="fill: rgb(255, 255, 255);"/>
	</g>
	<g>
		<path class="st37" d="M653.6,540.4c0.2,1.1-0.4,2.2-1.5,2.4c-1.1,0.2-2.2-0.4-2.4-1.5c-0.3-1.1,0.4-2.2,1.5-2.5&#10;&#9;&#9;&#9;C652.3,538.6,653.3,539.3,653.6,540.4z" style="fill: rgb(255, 255, 255);"/>
	</g>
	<g>
		<path class="st37" d="M660.4,539.2c0.1,1.1-0.6,2.1-1.7,2.3c-1.1,0.2-2.1-0.5-2.3-1.6s0.5-2.2,1.7-2.4&#10;&#9;&#9;&#9;C659.2,537.3,660.2,538.1,660.4,539.2z" style="fill: rgb(255, 255, 255);"/>
	</g>
	<g>
		<path class="st37" d="M667.3,538.5c0.1,1.1-0.8,2.1-1.9,2.2c-1.1,0.1-2.1-0.8-2.2-1.9c-0.1-1.1,0.7-2.1,1.9-2.2&#10;&#9;&#9;&#9;C666.2,536.6,667.2,537.4,667.3,538.5z" style="fill: rgb(255, 255, 255);"/>
	</g>
	<g>
		<path class="st37" d="M674.2,538.4c0,1.1-0.9,2-2,2c-1.1,0-2-0.9-2-2c0-1.1,0.9-2,2-2.1C673.3,536.3,674.2,537.3,674.2,538.4z" style="fill: rgb(255, 255, 255);"/>
	</g>
	<g>
		<path class="st37" d="M681.1,538.8c-0.1,1.1-1.1,1.9-2.2,1.9c-1.1-0.1-1.9-1.1-1.9-2.2c0.1-1.1,1-2,2.2-1.9&#10;&#9;&#9;&#9;C680.3,536.7,681.2,537.7,681.1,538.8z" style="fill: rgb(255, 255, 255);"/>
	</g>
	<g>
		<path class="st37" d="M687.9,539.7c-0.2,1.1-1.2,1.8-2.3,1.6c-1.1-0.1-1.8-1.1-1.7-2.3c0.1-1.1,1.2-1.9,2.3-1.7&#10;&#9;&#9;&#9;C687.3,537.6,688.1,538.6,687.9,539.7z" style="fill: rgb(255, 255, 255);"/>
	</g>
	<g>
		<path class="st37" d="M694.6,541.2c-0.3,1.1-1.4,1.8-2.4,1.5c-1.1-0.2-1.7-1.3-1.5-2.4c0.2-1.1,1.3-1.8,2.4-1.5&#10;&#9;&#9;&#9;C694.2,539,694.9,540.1,694.6,541.2z" style="fill: rgb(255, 255, 255);"/>
	</g>
	<g>
		<path class="st37" d="M701.3,543.2c-0.4,1.1-1.5,1.6-2.5,1.3c-1-0.3-1.6-1.4-1.3-2.5c0.3-1.1,1.5-1.7,2.6-1.4&#10;&#9;&#9;&#9;C701,540.9,701.6,542.1,701.3,543.2z" style="fill: rgb(255, 255, 255);"/>
	</g>
	<g>
		<path class="st37" d="M707.7,545.6c-0.4,1-1.6,1.5-2.6,1.1c-1-0.4-1.5-1.6-1.1-2.6c0.4-1,1.6-1.6,2.6-1.1&#10;&#9;&#9;&#9;C707.7,543.4,708.1,544.6,707.7,545.6z" style="fill: rgb(255, 255, 255);"/>
	</g>
	<g>
		<path class="st37" d="M713.9,548.6c-0.5,1-1.7,1.4-2.7,0.9c-1-0.5-1.4-1.7-0.9-2.7c0.5-1,1.7-1.5,2.7-0.9&#10;&#9;&#9;&#9;C714,546.4,714.4,547.6,713.9,548.6z" style="fill: rgb(255, 255, 255);"/>
	</g>
	<g>
		<path class="st37" d="M719.9,552.1c-0.6,1-1.8,1.2-2.8,0.7c-0.9-0.5-1.3-1.8-0.7-2.7c0.5-1,1.8-1.3,2.8-0.7&#10;&#9;&#9;&#9;C720.2,549.8,720.5,551.1,719.9,552.1z" style="fill: rgb(255, 255, 255);"/>
	</g>
	<g>
		<path class="st37" d="M725.6,556c-0.7,0.9-1.9,1.1-2.8,0.5c-0.9-0.6-1.1-1.9-0.5-2.8c0.6-0.9,1.9-1.1,2.8-0.5&#10;&#9;&#9;&#9;C726.1,553.8,726.3,555.1,725.6,556z" style="fill: rgb(255, 255, 255);"/>
	</g>
	<g>
		<path class="st37" d="M731,560.3c-0.7,0.8-2,0.9-2.8,0.2c-0.8-0.7-1-1.9-0.3-2.8c0.7-0.9,2-1,2.9-0.3&#10;&#9;&#9;&#9;C731.6,558.2,731.7,559.5,731,560.3z" style="fill: rgb(255, 255, 255);"/>
	</g>
	<g>
		<path class="st37" d="M736,565.1c-0.8,0.8-2.1,0.8-2.9,0c-0.8-0.8-0.8-2-0.1-2.9c0.8-0.8,2-0.8,2.9,0&#10;&#9;&#9;&#9;C736.8,563,736.8,564.3,736,565.1z" style="fill: rgb(255, 255, 255);"/>
	</g>
	<g>
		<path class="st37" d="M740.6,570.2c-0.9,0.7-2.1,0.6-2.9-0.2c-0.7-0.8-0.6-2.1,0.2-2.9c0.8-0.8,2.1-0.7,2.9,0.2&#10;&#9;&#9;&#9;C741.6,568.2,741.5,569.5,740.6,570.2z" style="fill: rgb(255, 255, 255);"/>
	</g>
	<g>
		<path class="st37" d="M744.9,575.6c-0.9,0.6-2.2,0.4-2.8-0.4c-0.7-0.9-0.5-2.1,0.4-2.8c0.9-0.7,2.2-0.5,2.9,0.4&#10;&#9;&#9;&#9;C746,573.7,745.8,575,744.9,575.6z" style="fill: rgb(255, 255, 255);"/>
	</g>
	<g>
		<path class="st37" d="M748.7,581.4c-0.9,0.6-2.2,0.3-2.8-0.6c-0.6-0.9-0.3-2.2,0.6-2.8c0.9-0.6,2.2-0.3,2.8,0.6&#10;&#9;&#9;&#9;C749.9,579.6,749.6,580.8,748.7,581.4z" style="fill: rgb(255, 255, 255);"/>
	</g>
	<g>
		<path class="st37" d="M752,587.4c-1,0.5-2.2,0.1-2.7-0.9c-0.5-1-0.2-2.2,0.8-2.7c1-0.5,2.3-0.2,2.8,0.8&#10;&#9;&#9;&#9;C753.4,585.7,753,586.9,752,587.4z" style="fill: rgb(255, 255, 255);"/>
	</g>
	<g>
		<path class="st37" d="M754.9,593.7c-1,0.4-2.2-0.1-2.6-1.1c-0.5-1,0-2.2,1-2.7c1-0.5,2.2,0,2.7,1&#10;&#9;&#9;&#9;C756.4,592.1,755.9,593.3,754.9,593.7z" style="fill: rgb(255, 255, 255);"/>
	</g>
	<g>
		<path class="st37" d="M757.2,600.2c-1.1,0.3-2.2-0.2-2.6-1.3c-0.3-1,0.2-2.2,1.2-2.6c1.1-0.4,2.2,0.2,2.6,1.3&#10;&#9;&#9;&#9;C758.9,598.7,758.3,599.9,757.2,600.2z" style="fill: rgb(255, 255, 255);"/>
	</g>
	<g>
		<path class="st37" d="M759.1,606.9c-1.1,0.3-2.2-0.4-2.4-1.5c-0.3-1,0.3-2.2,1.4-2.5c1.1-0.3,2.2,0.3,2.5,1.4&#10;&#9;&#9;&#9;C760.8,605.5,760.1,606.6,759.1,606.9z" style="fill: rgb(255, 255, 255);"/>
	</g>
	<g>
		<path class="st37" d="M760.4,613.6c-1.1,0.2-2.2-0.6-2.4-1.6c-0.2-1.1,0.5-2.1,1.6-2.4s2.1,0.5,2.4,1.6&#10;&#9;&#9;&#9;C762.2,612.4,761.5,613.5,760.4,613.6z" style="fill: rgb(255, 255, 255);"/>
	</g>
	<g>
		<path class="st37" d="M761.2,620.5c-1.1,0.1-2.1-0.7-2.2-1.8c-0.1-1.1,0.7-2.1,1.8-2.2c1.1-0.1,2.1,0.7,2.3,1.8&#10;&#9;&#9;&#9;C763.1,619.4,762.3,620.4,761.2,620.5z" style="fill: rgb(255, 255, 255);"/>
	</g>
	<g>
		<path class="st37" d="M761.5,627.4c-1.1,0-2-0.9-2.1-2c0-1.1,0.9-2,2-2.1c1.1-0.1,2,0.8,2.1,2&#10;&#9;&#9;&#9;C763.5,626.5,762.6,627.4,761.5,627.4z" style="fill: rgb(255, 255, 255);"/>
	</g>
</g><g transform="matrix(1, 0, 0, 1, 0, 0)">
	<path class="st37" d="M672.4,568.9c-32.3,0-58.5,26.2-58.5,58.5c0,32.3,26.2,58.5,58.5,58.5s58.5-26.2,58.5-58.5&#10;&#9;&#9;C730.9,595,704.7,568.9,672.4,568.9z M686.6,602c3.9,0,7,3.1,7,7c0,3.9-3.1,7-7,7s-7-3.2-7-7C679.5,605.1,682.7,602,686.6,602z&#10;&#9;&#9; M657.3,602c3.9,0,7,3.1,7,7c0,3.9-3.1,7-7,7s-7-3.2-7-7C650.2,605.1,653.4,602,657.3,602z M702.6,644.3&#10;&#9;&#9;c-8.3,7.5-19,11.6-30.1,11.6c-11.2,0-21.9-4.1-30.2-11.7c-1.4-1.3-1.5-3.5-0.2-5c1.3-1.4,3.5-1.5,5-0.2c7,6.3,16,9.8,25.5,9.8&#10;&#9;&#9;c9.4,0,18.4-3.5,25.4-9.8c1.4-1.3,3.7-1.2,5,0.3C704.2,640.8,704.1,643,702.6,644.3z" style="fill: rgb(255, 255, 255);"/>
</g><path class="st48" d="M783.4,638.4L783.4,638.4c-52.7,5.2-94.8,47.3-100,100L783.4,638.4z" style="fill: url('#gradient-4');" transform="matrix(1, 0, 0, 1, 0, 0)"/></g></g></g></g><g transform="matrix(1, 0, 0, 1, 2.9573636054992676, -15.667870521545403)"><path class="st3" d="M597.4,731.8h-52.3c-5.8,0-10.4-4.7-10.4-10.4v-86.5c0-5.8,4.7-10.4,10.4-10.4h52.3c5.8,0,10.4,4.7,10.4,10.4&#10;&#9;&#9;&#9;v86.5C607.9,727.1,603.2,731.8,597.4,731.8z" style="fill: rgb(130, 186, 189);" transform="matrix(1.6666667461395264, 0, 0, 1.6666667461395264, -740.3551025390625, -751.33154296875)"/><g transform="matrix(0.3111492097377777, 0, 0, 0.3111492097377777, 2.5128843784332275, 183.70343017578125)"><linearGradient id="gradient-5" gradientUnits="userSpaceOnUse" x1="600.7574" y1="541.95" x2="731.6191" y2="697.9048">
	<stop offset="0" style="stop-color:#FFFFFF"/>
	<stop offset="0.4746" style="stop-color:#FDFDFD"/>
	<stop offset="0.6456" style="stop-color:#F6F6F6"/>
	<stop offset="0.7675" style="stop-color:#EBEBEB"/>
	<stop offset="0.866" style="stop-color:#DADADA"/>
	<stop offset="0.9494" style="stop-color:#C4C4C4"/>
	<stop offset="1" style="stop-color:#B3B3B3"/>
</linearGradient><linearGradient id="gradient-6" gradientUnits="userSpaceOnUse" x1="715.5851" y1="670.519" x2="733.4175" y2="688.3514">
	<stop offset="0" style="stop-color:#FFFFFF"/>
	<stop offset="0.1623" style="stop-color:#FAFAFA"/>
	<stop offset="0.3444" style="stop-color:#EDEDED"/>
	<stop offset="0.536" style="stop-color:#D6D6D6"/>
	<stop offset="0.7331" style="stop-color:#B7B7B7"/>
	<stop offset="0.7596" style="stop-color:#B3B3B3"/>
</linearGradient><g transform="matrix(1, 0, 0, 1, 0, 0)"><path class="st32" d="M698.1,723.7c-8.2,2.2-16.8,3.4-25.7,3.4c-55,0-99.7-44.6-99.7-99.7c0-55,44.6-99.7,99.7-99.7&#10;&#9;c55,0,99.7,44.6,99.7,99.7c0,8.9-1.2,17.5-3.4,25.7l14.7-14.7c0.4-3.6,0.5-7.3,0.5-11c0-61.5-50-111.5-111.5-111.5&#10;&#9;c-61.5,0-111.5,50-111.5,111.5c0,61.5,50,111.5,111.5,111.5c3.7,0,7.4-0.2,11-0.5L698.1,723.7z" style="fill: url('#gradient-5');" transform="matrix(1, 0, 0, 1, 0, 0)"/><path class="st33" d="M768.7,653.1c2.2-8.2,3.4-16.8,3.4-25.7c0-55-44.6-99.7-99.7-99.7c-55,0-99.7,44.6-99.7,99.7&#10;&#9;c0,55,44.6,99.7,99.7,99.7c8.9,0,17.5-1.2,25.7-3.4L768.7,653.1z" style="fill: rgb(250, 164, 28);" transform="matrix(1, 0, 0, 1, 0, 0)"/><g transform="matrix(1, 0, 0, 1, 0, 0)">
	<g>
		<path class="st37" d="M761.2,634.3c-1.1-0.1-2-1-1.9-2.1c0.1-1.1,1-2,2.1-1.9c1.1,0,2,1,2,2.1&#10;&#9;&#9;&#9;C763.3,633.5,762.3,634.4,761.2,634.3z" style="fill: rgb(255, 255, 255);"/>
	</g>
	<g>
		<path class="st37" d="M760.4,641.2c-1.1-0.2-1.9-1.2-1.7-2.3c0.1-1.1,1.2-1.9,2.3-1.8s1.9,1.1,1.8,2.3&#10;&#9;&#9;&#9;C762.5,640.5,761.5,641.3,760.4,641.2z" style="fill: rgb(255, 255, 255);"/>
	</g>
	<g>
		<path class="st37" d="M681.1,716c-0.1-1.1,0.7-2.1,1.8-2.2c1.1-0.1,2.1,0.6,2.3,1.8c0.2,1.1-0.6,2.1-1.8,2.3&#10;&#9;&#9;&#9;C682.2,717.9,681.2,717.1,681.1,716z" style="fill: rgb(255, 255, 255);"/>
	</g>
	<g>
		<path class="st37" d="M674.2,716.4c0-1.1,0.9-2,1.9-2.1c1.1,0,2,0.8,2.1,1.9c0.1,1.1-0.8,2.1-1.9,2.1&#10;&#9;&#9;&#9;C675.1,718.4,674.2,717.5,674.2,716.4z" style="fill: rgb(255, 255, 255);"/>
	</g>
	<g>
		<path class="st37" d="M667.3,716.3c0.1-1.1,1-2,2.1-1.9c1.1,0,2,1,2,2.1s-1,2-2.1,2C668.1,718.4,667.2,717.4,667.3,716.3z" style="fill: rgb(255, 255, 255);"/>
	</g>
	<g>
		<path class="st37" d="M660.4,715.6c0.2-1.1,1.2-1.9,2.2-1.8c1.1,0.2,1.9,1.1,1.8,2.2c-0.1,1.1-1.1,2-2.2,1.8&#10;&#9;&#9;&#9;C661,717.7,660.2,716.7,660.4,715.6z" style="fill: rgb(255, 255, 255);"/>
	</g>
	<g>
		<path class="st37" d="M653.6,714.4c0.2-1.1,1.3-1.8,2.4-1.6c1.1,0.2,1.8,1.2,1.6,2.3c-0.2,1.1-1.2,1.8-2.4,1.6&#10;&#9;&#9;&#9;C654.1,716.6,653.3,715.5,653.6,714.4z" style="fill: rgb(255, 255, 255);"/>
	</g>
	<g>
		<path class="st37" d="M646.9,712.7c0.3-1.1,1.4-1.7,2.5-1.4c1,0.3,1.7,1.4,1.4,2.5c-0.3,1.1-1.4,1.8-2.5,1.4&#10;&#9;&#9;&#9;C647.2,714.9,646.6,713.8,646.9,712.7z" style="fill: rgb(255, 255, 255);"/>
	</g>
	<g>
		<path class="st37" d="M640.4,710.5c0.4-1.1,1.6-1.5,2.6-1.2c1,0.3,1.6,1.5,1.2,2.6c-0.4,1.1-1.5,1.6-2.6,1.3&#10;&#9;&#9;&#9;C640.5,712.7,640,711.5,640.4,710.5z" style="fill: rgb(255, 255, 255);"/>
	</g>
	<g>
		<path class="st37" d="M634,707.7c0.5-1,1.7-1.5,2.7-1c1,0.4,1.5,1.7,1,2.7s-1.6,1.5-2.7,1C634,709.9,633.5,708.7,634,707.7z" style="fill: rgb(255, 255, 255);"/>
	</g>
	<g>
		<path class="st37" d="M627.9,704.5c0.6-1,1.8-1.3,2.7-0.8c1,0.5,1.3,1.7,0.8,2.7c-0.5,1-1.8,1.4-2.8,0.8&#10;&#9;&#9;&#9;C627.7,706.7,627.4,705.5,627.9,704.5z" style="fill: rgb(255, 255, 255);"/>
	</g>
	<g>
		<path class="st37" d="M622.1,700.8c0.6-0.9,1.9-1.1,2.8-0.6c0.9,0.6,1.2,1.8,0.6,2.8c-0.6,1-1.8,1.2-2.8,0.6&#10;&#9;&#9;&#9;C621.7,703,621.4,701.7,622.1,700.8z" style="fill: rgb(255, 255, 255);"/>
	</g>
	<g>
		<path class="st37" d="M616.5,696.7c0.7-0.9,2-1,2.8-0.3c0.8,0.7,1,1.9,0.4,2.8c-0.7,0.9-2,1.1-2.9,0.4&#10;&#9;&#9;&#9;C616,698.8,615.8,697.5,616.5,696.7z" style="fill: rgb(255, 255, 255);"/>
	</g>
	<g>
		<path class="st37" d="M611.3,692.1c0.8-0.8,2-0.8,2.8-0.1c0.8,0.7,0.9,2,0.2,2.8c-0.7,0.9-2,0.9-2.9,0.2&#10;&#9;&#9;&#9;C610.6,694.3,610.6,692.9,611.3,692.1z" style="fill: rgb(255, 255, 255);"/>
	</g>
	<g>
		<path class="st37" d="M606.5,687.2c0.8-0.7,2.1-0.7,2.9,0.1c0.8,0.8,0.7,2.1-0.1,2.9c-0.8,0.8-2.1,0.8-2.9-0.1&#10;&#9;&#9;&#9;C605.6,689.3,605.7,688,606.5,687.2z" style="fill: rgb(255, 255, 255);"/>
	</g>
	<g>
		<path class="st37" d="M602.1,681.9c0.9-0.7,2.2-0.5,2.8,0.3c0.7,0.9,0.6,2.1-0.3,2.8c-0.8,0.7-2.2,0.6-2.9-0.3&#10;&#9;&#9;&#9;C601,683.9,601.2,682.6,602.1,681.9z" style="fill: rgb(255, 255, 255);"/>
	</g>
	<g>
		<path class="st37" d="M598,676.3c0.9-0.6,2.2-0.3,2.8,0.5c0.6,0.9,0.4,2.1-0.5,2.8s-2.2,0.4-2.8-0.5&#10;&#9;&#9;&#9;C596.8,678.2,597.1,676.9,598,676.3z" style="fill: rgb(255, 255, 255);"/>
	</g>
	<g>
		<path class="st37" d="M594.5,670.4c1-0.5,2.2-0.2,2.8,0.7c0.5,1,0.2,2.2-0.7,2.8c-1,0.6-2.2,0.3-2.8-0.7&#10;&#9;&#9;&#9;C593.2,672.2,593.5,670.9,594.5,670.4z" style="fill: rgb(255, 255, 255);"/>
	</g>
	<g>
		<path class="st37" d="M591.4,664.2c1-0.5,2.2,0,2.7,1c0.5,1,0.1,2.2-0.9,2.7c-1,0.5-2.2,0.1-2.7-0.9&#10;&#9;&#9;&#9;C589.9,665.9,590.4,664.7,591.4,664.2z" style="fill: rgb(255, 255, 255);"/>
	</g>
	<g>
		<path class="st37" d="M588.7,657.9c1-0.4,2.2,0.1,2.6,1.2c0.4,1-0.1,2.2-1.1,2.6c-1,0.4-2.2-0.1-2.6-1.2&#10;&#9;&#9;&#9;C587.2,659.4,587.7,658.2,588.7,657.9z" style="fill: rgb(255, 255, 255);"/>
	</g>
	<g>
		<path class="st37" d="M586.7,651.3c1.1-0.3,2.2,0.3,2.5,1.4c0.3,1.1-0.2,2.2-1.3,2.5c-1,0.3-2.3-0.2-2.6-1.3&#10;&#9;&#9;&#9;C585,652.7,585.6,651.6,586.7,651.3z" style="fill: rgb(255, 255, 255);"/>
	</g>
	<g>
		<path class="st37" d="M585.1,644.6c1.1-0.2,2.1,0.5,2.4,1.6c0.2,1.1-0.4,2.1-1.5,2.4c-1.1,0.3-2.2-0.4-2.4-1.5&#10;&#9;&#9;&#9;C583.2,645.9,584,644.8,585.1,644.6z" style="fill: rgb(255, 255, 255);"/>
	</g>
	<g>
		<path class="st37" d="M584,637.7c1.1-0.1,2.1,0.7,2.3,1.7c0.1,1.1-0.6,2.1-1.7,2.3c-1.1,0.2-2.2-0.6-2.3-1.7&#10;&#9;&#9;&#9;C582.1,638.9,582.9,637.9,584,637.7z" style="fill: rgb(255, 255, 255);"/>
	</g>
	<g>
		<path class="st37" d="M583.5,630.8c1.1,0,2,0.8,2.1,1.9c0.1,1.1-0.8,2.1-1.9,2.1c-1.1,0.1-2.1-0.8-2.2-1.9&#10;&#9;&#9;&#9;C581.4,631.8,582.4,630.9,583.5,630.8z" style="fill: rgb(255, 255, 255);"/>
	</g>
	<g>
		<path class="st37" d="M583.5,623.9c1.1,0,2,1,2,2.1c0,1.1-0.9,2-2,2c-1.1,0-2-0.9-2-2.1C581.4,624.8,582.4,623.9,583.5,623.9z" style="fill: rgb(255, 255, 255);"/>
	</g>
	<g>
		<path class="st37" d="M584,617.1c1.1,0.1,1.9,1.1,1.8,2.2c-0.1,1.1-1.1,1.9-2.2,1.8s-2-1.1-1.9-2.2&#10;&#9;&#9;&#9;C581.8,617.7,582.9,616.9,584,617.1z" style="fill: rgb(255, 255, 255);"/>
	</g>
	<g>
		<path class="st37" d="M585.1,610.2c1.1,0.2,1.8,1.3,1.6,2.3c-0.2,1.1-1.2,1.8-2.3,1.7c-1.1-0.2-1.9-1.2-1.7-2.3&#10;&#9;&#9;&#9;C582.9,610.8,584,610,585.1,610.2z" style="fill: rgb(255, 255, 255);"/>
	</g>
	<g>
		<path class="st37" d="M586.7,603.5c1.1,0.3,1.7,1.4,1.4,2.5c-0.2,1.1-1.3,1.7-2.4,1.5c-1.1-0.2-1.8-1.4-1.5-2.5&#10;&#9;&#9;&#9;C584.4,603.9,585.6,603.2,586.7,603.5z" style="fill: rgb(255, 255, 255);"/>
	</g>
	<g>
		<path class="st37" d="M588.7,596.9c1,0.4,1.6,1.5,1.3,2.6c-0.3,1-1.5,1.6-2.6,1.3c-1.1-0.3-1.6-1.5-1.3-2.6&#10;&#9;&#9;&#9;C586.5,597.1,587.7,596.5,588.7,596.9z" style="fill: rgb(255, 255, 255);"/>
	</g>
	<g>
		<path class="st37" d="M591.4,590.6c1,0.5,1.5,1.7,1,2.6c-0.4,1-1.6,1.5-2.6,1.1c-1-0.4-1.6-1.6-1.1-2.7&#10;&#9;&#9;&#9;C589.2,590.6,590.4,590.1,591.4,590.6z" style="fill: rgb(255, 255, 255);"/>
	</g>
	<g>
		<path class="st37" d="M594.5,584.4c1,0.5,1.3,1.8,0.8,2.7c-0.5,1-1.7,1.4-2.7,0.9c-1-0.5-1.4-1.7-0.9-2.7&#10;&#9;&#9;&#9;C592.2,584.2,593.5,583.8,594.5,584.4z" style="fill: rgb(255, 255, 255);"/>
	</g>
	<g>
		<path class="st37" d="M598,578.5c0.9,0.6,1.2,1.9,0.6,2.8c-0.6,0.9-1.8,1.2-2.8,0.7c-1-0.6-1.3-1.8-0.7-2.8&#10;&#9;&#9;&#9;C595.9,578.1,597.1,577.9,598,578.5z" style="fill: rgb(255, 255, 255);"/>
	</g>
	<g>
		<path class="st37" d="M602.1,572.9c0.9,0.7,1,1.9,0.4,2.8c-0.6,0.9-1.9,1.1-2.8,0.5c-0.9-0.6-1.1-1.9-0.5-2.9&#10;&#9;&#9;&#9;C599.9,572.3,601.2,572.2,602.1,572.9z" style="fill: rgb(255, 255, 255);"/>
	</g>
	<g>
		<path class="st37" d="M606.5,567.6c0.8,0.8,0.9,2,0.2,2.9c-0.7,0.8-2,0.9-2.9,0.2s-1-2-0.2-2.9&#10;&#9;&#9;&#9;C604.4,566.9,605.7,566.8,606.5,567.6z" style="fill: rgb(255, 255, 255);"/>
	</g>
	<g>
		<path class="st37" d="M611.3,562.6c0.8,0.8,0.7,2.1,0,2.8c-0.8,0.8-2,0.8-2.8,0c-0.8-0.8-0.8-2.1,0-2.9&#10;&#9;&#9;&#9;C609.3,561.8,610.6,561.8,611.3,562.6z" style="fill: rgb(255, 255, 255);"/>
	</g>
	<g>
		<path class="st37" d="M616.5,558.1c0.7,0.9,0.6,2.1-0.3,2.8c-0.8,0.7-2.1,0.6-2.8-0.2c-0.7-0.8-0.6-2.1,0.2-2.9&#10;&#9;&#9;&#9;C614.5,557.1,615.8,557.2,616.5,558.1z" style="fill: rgb(255, 255, 255);"/>
	</g>
	<g>
		<path class="st37" d="M622.1,554c0.6,0.9,0.4,2.2-0.5,2.8c-0.9,0.6-2.2,0.4-2.8-0.4c-0.7-0.9-0.5-2.2,0.5-2.8&#10;&#9;&#9;&#9;C620.2,552.8,621.4,553,622.1,554z" style="fill: rgb(255, 255, 255);"/>
	</g>
	<g>
		<path class="st37" d="M627.9,550.3c0.6,1,0.2,2.2-0.7,2.7c-0.9,0.6-2.2,0.3-2.8-0.6c-0.6-0.9-0.3-2.2,0.7-2.8&#10;&#9;&#9;&#9;C626.1,549,627.4,549.3,627.9,550.3z" style="fill: rgb(255, 255, 255);"/>
	</g>
	<g>
		<path class="st37" d="M634,547.1c0.5,1,0.1,2.2-0.9,2.7c-1,0.5-2.2,0.1-2.7-0.9c-0.5-1-0.1-2.2,0.9-2.7&#10;&#9;&#9;&#9;C632.3,545.6,633.5,546,634,547.1z" style="fill: rgb(255, 255, 255);"/>
	</g>
	<g>
		<path class="st37" d="M640.4,544.3c0.4,1-0.1,2.2-1.1,2.6c-1,0.4-2.2,0-2.6-1.1c-0.4-1,0-2.3,1.1-2.7&#10;&#9;&#9;&#9;C638.8,542.8,640,543.3,640.4,544.3z" style="fill: rgb(255, 255, 255);"/>
	</g>
	<g>
		<path class="st37" d="M646.9,542.1c0.3,1.1-0.3,2.2-1.3,2.5c-1,0.4-2.2-0.2-2.5-1.3c-0.4-1.1,0.2-2.2,1.3-2.6&#10;&#9;&#9;&#9;C645.4,540.4,646.6,541,646.9,542.1z" style="fill: rgb(255, 255, 255);"/>
	</g>
	<g>
		<path class="st37" d="M653.6,540.4c0.2,1.1-0.4,2.2-1.5,2.4c-1.1,0.2-2.2-0.4-2.4-1.5c-0.3-1.1,0.4-2.2,1.5-2.5&#10;&#9;&#9;&#9;C652.3,538.6,653.3,539.3,653.6,540.4z" style="fill: rgb(255, 255, 255);"/>
	</g>
	<g>
		<path class="st37" d="M660.4,539.2c0.1,1.1-0.6,2.1-1.7,2.3c-1.1,0.2-2.1-0.5-2.3-1.6s0.5-2.2,1.7-2.4&#10;&#9;&#9;&#9;C659.2,537.3,660.2,538.1,660.4,539.2z" style="fill: rgb(255, 255, 255);"/>
	</g>
	<g>
		<path class="st37" d="M667.3,538.5c0.1,1.1-0.8,2.1-1.9,2.2c-1.1,0.1-2.1-0.8-2.2-1.9c-0.1-1.1,0.7-2.1,1.9-2.2&#10;&#9;&#9;&#9;C666.2,536.6,667.2,537.4,667.3,538.5z" style="fill: rgb(255, 255, 255);"/>
	</g>
	<g>
		<path class="st37" d="M674.2,538.4c0,1.1-0.9,2-2,2c-1.1,0-2-0.9-2-2c0-1.1,0.9-2,2-2.1C673.3,536.3,674.2,537.3,674.2,538.4z" style="fill: rgb(255, 255, 255);"/>
	</g>
	<g>
		<path class="st37" d="M681.1,538.8c-0.1,1.1-1.1,1.9-2.2,1.9c-1.1-0.1-1.9-1.1-1.9-2.2c0.1-1.1,1-2,2.2-1.9&#10;&#9;&#9;&#9;C680.3,536.7,681.2,537.7,681.1,538.8z" style="fill: rgb(255, 255, 255);"/>
	</g>
	<g>
		<path class="st37" d="M687.9,539.7c-0.2,1.1-1.2,1.8-2.3,1.6c-1.1-0.1-1.8-1.1-1.7-2.3c0.1-1.1,1.2-1.9,2.3-1.7&#10;&#9;&#9;&#9;C687.3,537.6,688.1,538.6,687.9,539.7z" style="fill: rgb(255, 255, 255);"/>
	</g>
	<g>
		<path class="st37" d="M694.6,541.2c-0.3,1.1-1.4,1.8-2.4,1.5c-1.1-0.2-1.7-1.3-1.5-2.4c0.2-1.1,1.3-1.8,2.4-1.5&#10;&#9;&#9;&#9;C694.2,539,694.9,540.1,694.6,541.2z" style="fill: rgb(255, 255, 255);"/>
	</g>
	<g>
		<path class="st37" d="M701.3,543.2c-0.4,1.1-1.5,1.6-2.5,1.3c-1-0.3-1.6-1.4-1.3-2.5c0.3-1.1,1.5-1.7,2.6-1.4&#10;&#9;&#9;&#9;C701,540.9,701.6,542.1,701.3,543.2z" style="fill: rgb(255, 255, 255);"/>
	</g>
	<g>
		<path class="st37" d="M707.7,545.6c-0.4,1-1.6,1.5-2.6,1.1c-1-0.4-1.5-1.6-1.1-2.6c0.4-1,1.6-1.6,2.6-1.1&#10;&#9;&#9;&#9;C707.7,543.4,708.1,544.6,707.7,545.6z" style="fill: rgb(255, 255, 255);"/>
	</g>
	<g>
		<path class="st37" d="M713.9,548.6c-0.5,1-1.7,1.4-2.7,0.9c-1-0.5-1.4-1.7-0.9-2.7c0.5-1,1.7-1.5,2.7-0.9&#10;&#9;&#9;&#9;C714,546.4,714.4,547.6,713.9,548.6z" style="fill: rgb(255, 255, 255);"/>
	</g>
	<g>
		<path class="st37" d="M719.9,552.1c-0.6,1-1.8,1.2-2.8,0.7c-0.9-0.5-1.3-1.8-0.7-2.7c0.5-1,1.8-1.3,2.8-0.7&#10;&#9;&#9;&#9;C720.2,549.8,720.5,551.1,719.9,552.1z" style="fill: rgb(255, 255, 255);"/>
	</g>
	<g>
		<path class="st37" d="M725.6,556c-0.7,0.9-1.9,1.1-2.8,0.5c-0.9-0.6-1.1-1.9-0.5-2.8c0.6-0.9,1.9-1.1,2.8-0.5&#10;&#9;&#9;&#9;C726.1,553.8,726.3,555.1,725.6,556z" style="fill: rgb(255, 255, 255);"/>
	</g>
	<g>
		<path class="st37" d="M731,560.3c-0.7,0.8-2,0.9-2.8,0.2c-0.8-0.7-1-1.9-0.3-2.8c0.7-0.9,2-1,2.9-0.3&#10;&#9;&#9;&#9;C731.6,558.2,731.7,559.5,731,560.3z" style="fill: rgb(255, 255, 255);"/>
	</g>
	<g>
		<path class="st37" d="M736,565.1c-0.8,0.8-2.1,0.8-2.9,0c-0.8-0.8-0.8-2-0.1-2.9c0.8-0.8,2-0.8,2.9,0&#10;&#9;&#9;&#9;C736.8,563,736.8,564.3,736,565.1z" style="fill: rgb(255, 255, 255);"/>
	</g>
	<g>
		<path class="st37" d="M740.6,570.2c-0.9,0.7-2.1,0.6-2.9-0.2c-0.7-0.8-0.6-2.1,0.2-2.9c0.8-0.8,2.1-0.7,2.9,0.2&#10;&#9;&#9;&#9;C741.6,568.2,741.5,569.5,740.6,570.2z" style="fill: rgb(255, 255, 255);"/>
	</g>
	<g>
		<path class="st37" d="M744.9,575.6c-0.9,0.6-2.2,0.4-2.8-0.4c-0.7-0.9-0.5-2.1,0.4-2.8c0.9-0.7,2.2-0.5,2.9,0.4&#10;&#9;&#9;&#9;C746,573.7,745.8,575,744.9,575.6z" style="fill: rgb(255, 255, 255);"/>
	</g>
	<g>
		<path class="st37" d="M748.7,581.4c-0.9,0.6-2.2,0.3-2.8-0.6c-0.6-0.9-0.3-2.2,0.6-2.8c0.9-0.6,2.2-0.3,2.8,0.6&#10;&#9;&#9;&#9;C749.9,579.6,749.6,580.8,748.7,581.4z" style="fill: rgb(255, 255, 255);"/>
	</g>
	<g>
		<path class="st37" d="M752,587.4c-1,0.5-2.2,0.1-2.7-0.9c-0.5-1-0.2-2.2,0.8-2.7c1-0.5,2.3-0.2,2.8,0.8&#10;&#9;&#9;&#9;C753.4,585.7,753,586.9,752,587.4z" style="fill: rgb(255, 255, 255);"/>
	</g>
	<g>
		<path class="st37" d="M754.9,593.7c-1,0.4-2.2-0.1-2.6-1.1c-0.5-1,0-2.2,1-2.7c1-0.5,2.2,0,2.7,1&#10;&#9;&#9;&#9;C756.4,592.1,755.9,593.3,754.9,593.7z" style="fill: rgb(255, 255, 255);"/>
	</g>
	<g>
		<path class="st37" d="M757.2,600.2c-1.1,0.3-2.2-0.2-2.6-1.3c-0.3-1,0.2-2.2,1.2-2.6c1.1-0.4,2.2,0.2,2.6,1.3&#10;&#9;&#9;&#9;C758.9,598.7,758.3,599.9,757.2,600.2z" style="fill: rgb(255, 255, 255);"/>
	</g>
	<g>
		<path class="st37" d="M759.1,606.9c-1.1,0.3-2.2-0.4-2.4-1.5c-0.3-1,0.3-2.2,1.4-2.5c1.1-0.3,2.2,0.3,2.5,1.4&#10;&#9;&#9;&#9;C760.8,605.5,760.1,606.6,759.1,606.9z" style="fill: rgb(255, 255, 255);"/>
	</g>
	<g>
		<path class="st37" d="M760.4,613.6c-1.1,0.2-2.2-0.6-2.4-1.6c-0.2-1.1,0.5-2.1,1.6-2.4s2.1,0.5,2.4,1.6&#10;&#9;&#9;&#9;C762.2,612.4,761.5,613.5,760.4,613.6z" style="fill: rgb(255, 255, 255);"/>
	</g>
	<g>
		<path class="st37" d="M761.2,620.5c-1.1,0.1-2.1-0.7-2.2-1.8c-0.1-1.1,0.7-2.1,1.8-2.2c1.1-0.1,2.1,0.7,2.3,1.8&#10;&#9;&#9;&#9;C763.1,619.4,762.3,620.4,761.2,620.5z" style="fill: rgb(255, 255, 255);"/>
	</g>
	<g>
		<path class="st37" d="M761.5,627.4c-1.1,0-2-0.9-2.1-2c0-1.1,0.9-2,2-2.1c1.1-0.1,2,0.8,2.1,2&#10;&#9;&#9;&#9;C763.5,626.5,762.6,627.4,761.5,627.4z" style="fill: rgb(255, 255, 255);"/>
	</g>
</g><g transform="matrix(1, 0, 0, 1, 0, 0)">
	<path class="st37" d="M672.4,568.9c-32.3,0-58.5,26.2-58.5,58.5c0,32.3,26.2,58.5,58.5,58.5s58.5-26.2,58.5-58.5&#10;&#9;&#9;C730.9,595,704.7,568.9,672.4,568.9z M686.6,602c3.9,0,7,3.1,7,7c0,3.9-3.1,7-7,7s-7-3.2-7-7C679.5,605.1,682.7,602,686.6,602z&#10;&#9;&#9; M657.3,602c3.9,0,7,3.1,7,7c0,3.9-3.1,7-7,7s-7-3.2-7-7C650.2,605.1,653.4,602,657.3,602z M702.6,644.3&#10;&#9;&#9;c-8.3,7.5-19,11.6-30.1,11.6c-11.2,0-21.9-4.1-30.2-11.7c-1.4-1.3-1.5-3.5-0.2-5c1.3-1.4,3.5-1.5,5-0.2c7,6.3,16,9.8,25.5,9.8&#10;&#9;&#9;c9.4,0,18.4-3.5,25.4-9.8c1.4-1.3,3.7-1.2,5,0.3C704.2,640.8,704.1,643,702.6,644.3z" style="fill: rgb(255, 255, 255);"/>
</g><path class="st48" d="M783.4,638.4L783.4,638.4c-52.7,5.2-94.8,47.3-100,100L783.4,638.4z" style="fill: url('#gradient-6');" transform="matrix(1, 0, 0, 1, 0, 0)"/></g></g></g></g></g><g transform="matrix(1, 0, 0, 1, 0, 0)"><path class="st1" d="M553.9,668.4h-52.3c-7.4,0-13.5-6.1-13.5-13.5v-86.5c0-7.4,6.1-13.5,13.5-13.5h52.3c7.4,0,13.5,6.1,13.5,13.5&#10;&#9;&#9;&#9;v86.5C567.4,662.3,561.4,668.4,553.9,668.4z M501.6,561c-4.1,0-7.4,3.3-7.4,7.4v86.5c0,4.1,3.3,7.4,7.4,7.4h52.3&#10;&#9;&#9;&#9;c4.1,0,7.4-3.3,7.4-7.4v-86.5c0-4.1-3.3-7.4-7.4-7.4H501.6z" style="fill: rgb(25, 99, 113);" transform="matrix(1.6666667461395264, 0, 0, 1.6666667461395264, -556.817138671875, -844.7792358398438)"/><path class="st1" d="M553.9,668.4h-52.3c-7.4,0-13.5-6.1-13.5-13.5v-86.5c0-7.4,6.1-13.5,13.5-13.5h52.3c7.4,0,13.5,6.1,13.5,13.5&#10;&#9;&#9;&#9;v86.5C567.4,662.3,561.4,668.4,553.9,668.4z M501.6,561c-4.1,0-7.4,3.3-7.4,7.4v86.5c0,4.1,3.3,7.4,7.4,7.4h52.3&#10;&#9;&#9;&#9;c4.1,0,7.4-3.3,7.4-7.4v-86.5c0-4.1-3.3-7.4-7.4-7.4H501.6z" style="fill: rgb(25, 99, 113);" transform="matrix(1.6666667461395264, 0, 0, 1.6666667461395264, -712.376708984375, -844.7792358398438)"/></g></g><path class="st1" d="M553.9,668.4h-52.3c-7.4,0-13.5-6.1-13.5-13.5v-86.5c0-7.4,6.1-13.5,13.5-13.5h52.3c7.4,0,13.5,6.1,13.5,13.5&#10;&#9;&#9;&#9;v86.5C567.4,662.3,561.4,668.4,553.9,668.4z M501.6,561c-4.1,0-7.4,3.3-7.4,7.4v86.5c0,4.1,3.3,7.4,7.4,7.4h52.3&#10;&#9;&#9;&#9;c4.1,0,7.4-3.3,7.4-7.4v-86.5c0-4.1-3.3-7.4-7.4-7.4H501.6z" style="fill: rgb(25, 99, 113);" transform="matrix(1.6666667461395264, 0, 0, 1.6666667461395264, -714.614990234375, -652.8478393554688)"/></g><path class="st1" d="M553.9,668.4h-52.3c-7.4,0-13.5-6.1-13.5-13.5v-86.5c0-7.4,6.1-13.5,13.5-13.5h52.3c7.4,0,13.5,6.1,13.5,13.5&#10;&#9;&#9;&#9;v86.5C567.4,662.3,561.4,668.4,553.9,668.4z M501.6,561c-4.1,0-7.4,3.3-7.4,7.4v86.5c0,4.1,3.3,7.4,7.4,7.4h52.3&#10;&#9;&#9;&#9;c4.1,0,7.4-3.3,7.4-7.4v-86.5c0-4.1-3.3-7.4-7.4-7.4H501.6z" style="fill: rgb(25, 99, 113);" transform="matrix(1.6666667461395264, 0, 0, 1.6666667461395264, -557.3767700195312, -652.8477783203125)"/></g><g transform="matrix(1, 0, 0, 1, 0, -0.808040207977271)"><path d="M 38.7007942199707 70.7116470336914 L 45.32512664794922 78.40779113769531 C 49.08415222167969 82.52262115478516 52.57257080078125 86.09906768798828 55.7903938293457 89.13713073730469 C 59.00372314453125 92.17027282714844 62.77604675292969 95.20744323730469 67.10737609863281 98.24864196777344 C 66.94200897216797 99.40200805664062 66.1333236694336 100.64191436767578 64.68132019042969 101.9683609008789 C 61.865909576416016 104.54032135009766 59.33859634399414 104.60071563720703 57.099369049072266 102.14954376220703 C 55.242340087890625 100.11673736572266 52.5035285949707 96.9209976196289 48.8829345703125 92.56233215332031 C 45.2623405456543 88.20365905761719 42.375144958496094 84.84549713134766 40.221351623535156 82.48783874511719 C 40.736106872558594 86.34281158447266 41.67774200439453 90.82816314697266 43.046268463134766 95.94390106201172 C 44.41029357910156 101.0547103881836 45.45201873779297 104.0038833618164 46.171451568603516 104.7914047241211 C 46.8908805847168 105.57893371582031 47.520233154296875 106.11465454101562 48.05950927734375 106.3985595703125 C 47.78173065185547 107.42887115478516 47.089107513427734 108.44987487792969 45.98164749145508 109.46157836914062 C 44.879112243652344 110.46878051757812 43.6796989440918 111.0091552734375 42.38340759277344 111.08271026611328 C 41.08711624145508 111.15625762939453 39.7070426940918 110.89098358154297 38.24318313598633 110.2868881225586 C 36.77439880371094 109.68728637695312 33.99382019042969 108.40787506103516 29.901447296142578 106.44865417480469 C 25.808650970458984 104.49886322021484 22.22270965576172 102.87161254882812 19.143627166748047 101.5669174194336 C 22.812070846557617 107.16409301757812 26.361682891845703 111.84043884277344 29.792465209960938 115.59595489501953 C 33.21875 119.34654998779297 36.120601654052734 122.27596282958984 38.498016357421875 124.38418579101562 C 37.86111068725586 125.63421630859375 37.05783462524414 126.7021255493164 36.08819580078125 127.58792877197266 C 34.14891052246094 129.35952758789062 32.2934684753418 129.2756805419922 30.521873474121094 127.33639526367188 C 29.168445587158203 125.8548583984375 26.808168411254883 122.58421325683594 23.4410400390625 117.52444458007812 C 20.064495086669922 112.4642562866211 16.980077743530273 108.40586853027344 14.187789916992188 105.34928131103516 C 11.395501136779785 102.29269409179688 8.61347484588623 99.58340454101562 5.841705799102783 97.22142028808594 C 7.089129447937012 95.30530548095703 8.168129920959473 93.93132781982422 9.078707695007324 93.0994873046875 C 10.74235725402832 91.5796890258789 12.401694297790527 91.14739227294922 14.056719779968262 91.80260467529297 C 16.7119140625 92.8805160522461 20.825223922729492 94.6896743774414 26.396650314331055 97.2300796508789 C 31.972572326660156 99.77540588378906 36.3443717956543 101.65995025634766 39.51205062866211 102.88371276855469 C 39.23268127441406 101.9650650024414 38.68427276611328 99.95128631591797 37.8668327331543 96.84237670898438 C 37.0498161315918 93.72404479980469 36.329463958740234 91.0772476196289 35.705772399902344 88.90198516845703 C 35.07266616821289 86.7262954711914 34.19599151611328 84.2493896484375 33.07575225830078 81.47126770019531 C 31.951017379760742 78.68822479248047 30.7907772064209 76.42973327636719 29.595041275024414 74.69579315185547 C 30.40895652770996 73.39241027832031 31.337650299072266 72.26409912109375 32.38112258911133 71.31085968017578 C 33.42459487915039 70.35761260986328 34.517398834228516 69.77466583251953 35.6595344543457 69.56201934814453 C 36.80124282836914 69.35879516601562 37.81499099731445 69.74200439453125 38.7007942199707 70.7116470336914 ZM 74.13336944580078 82.37362670898438 C 75.23758697509766 85.11276245117188 76.54466247558594 87.0980453491211 78.05459594726562 88.32948303222656 C 79.5682144165039 89.55223846435547 81.35142517089844 89.74983978271484 83.40423583984375 88.92230224609375 C 85.45703887939453 88.09475708007812 86.78549194335938 86.7541732788086 87.38957977294922 84.9005355834961 C 87.98500061035156 83.043212890625 87.8838882446289 81.125244140625 87.08625793457031 79.1466293334961 C 88.3785400390625 78.62567901611328 89.63164520263672 78.49788665771484 90.84557342529297 78.76325988769531 C 92.0570068359375 79.02244567871094 92.8932876586914 79.72398376464844 93.35442352294922 80.86786651611328 C 94.3041000366211 83.22364807128906 93.84281158447266 85.69898223876953 91.9705581665039 88.29386138916016 C 90.09580993652344 90.88256072998047 87.77031707763672 92.73649597167969 84.99407958984375 93.85567474365234 C 80.65968322753906 95.60298919677734 77.04938507080078 95.69627380371094 74.1631851196289 94.13552856445312 C 71.27947235107422 92.58097076416016 68.91036987304688 89.5035629272461 67.05587768554688 84.90328979492188 C 65.19889068603516 80.29684448242188 64.94007873535156 75.90149688720703 66.2794418334961 71.71725463867188 C 67.62249755859375 67.52433776855469 70.46121978759766 64.5542221069336 74.79560852050781 62.806907653808594 C 77.7635269165039 61.6104621887207 80.42316436767578 61.32537841796875 82.77452087402344 61.9516487121582 C 85.1233901977539 62.571739196777344 86.8686294555664 64.2977294921875 88.01023864746094 67.1296157836914 C 89.15433502197266 69.96768188476562 88.73003387451172 72.614990234375 86.73731994628906 75.07154083251953 C 84.74710083007812 77.5342788696289 81.90631866455078 79.50968933105469 78.21497344970703 80.99777221679688 C 76.92269897460938 81.51872253417969 75.56216430664062 81.97734069824219 74.13336944580078 82.37362670898438 M 72.37191772460938 77.84367370605469 C 73.60183715820312 77.61380767822266 74.84439086914062 77.24588012695312 76.09957885742188 76.73988342285156 C 78.83871459960938 75.63566589355469 80.93505096435547 74.1939697265625 82.38859558105469 72.41480255126953 C 82.25096130371094 71.41365051269531 82.07495880126953 70.64720153808594 81.860595703125 70.11544799804688 C 81.32219696044922 68.77989196777344 80.43855285644531 67.96087646484375 79.20967102050781 67.65840148925781 C 77.9832763671875 67.36211395263672 76.54154205322266 67.54798126220703 74.88445281982422 68.21599578857422 C 73.23355102539062 68.88152313232422 71.95468139648438 70.0152359008789 71.04784393310547 71.61713409423828 C 71.16532897949219 73.86993408203125 71.606689453125 75.94544219970703 72.37191772460938 77.84367370605469 ZM 147.63491821289062 57.56298828125 L 147.84249877929688 70.73548126220703 C 148.08941650390625 74.70781707763672 148.89572143554688 78.43831634521484 150.26144409179688 81.9269790649414 C 149.14759826660156 82.49049377441406 147.8520965576172 82.81816101074219 146.37493896484375 82.90997314453125 C 142.89500427246094 83.12628173828125 141.03404235839844 81.2881851196289 140.79209899902344 77.39569854736328 C 140.68292236328125 75.63909149169922 140.7255096435547 72.67073059082031 140.91990661621094 68.49061584472656 C 141.1072235107422 64.30426788330078 141.1678009033203 61.67878341674805 141.10162353515625 60.614173889160156 C 140.9746551513672 58.571449279785156 140.07278442382812 57.602195739746094 138.39602661132812 57.7064208984375 C 136.55291748046875 57.820980072021484 134.4708709716797 59.840702056884766 132.14988708496094 63.76558303833008 C 129.82183837890625 67.68421936035156 128.72398376464844 70.7081527709961 128.8563232421875 72.8373794555664 C 129.2635955810547 76.05831909179688 130.03890991210938 79.23634338378906 131.18228149414062 82.37144470214844 C 129.6558837890625 82.96060943603516 128.36038208007812 83.28827667236328 127.29576873779297 83.35444641113281 C 123.8158187866211 83.57075500488281 121.955078125 81.7359848022461 121.71354675292969 77.85015106201172 C 121.61180877685547 76.21331024169922 121.66743469238281 73.45454406738281 121.88043212890625 69.57386016845703 C 122.08718872070312 65.70023345947266 122.15996551513672 63.27104187011719 122.0987548828125 62.286277770996094 C 121.97178649902344 60.243553161621094 120.99007415771484 59.27926254272461 119.15361785888672 59.393409729003906 C 117.88273620605469 59.47240447998047 116.48739624023438 60.50429153442383 114.96759796142578 62.48906326293945 C 113.44779968261719 64.47383880615234 112.19284057617188 66.63585662841797 111.20272064208984 68.9751205444336 C 110.21966552734375 71.32062530517578 109.7302017211914 73.17121887207031 109.73430633544922 74.52690887451172 C 110.15936279296875 78.0339584350586 110.76564025878906 81.17906951904297 111.55315399169922 83.96224212646484 C 110.27295684814453 84.53610229492188 108.92755126953125 84.86687469482422 107.51693725585938 84.95455169677734 C 106.10633087158203 85.04222869873047 104.93745422363281 84.77423095703125 104.01030731201172 84.15054321289062 C 103.0902328491211 83.5331039428711 102.59255981445312 82.61888122558594 102.51728820800781 81.40788269042969 C 102.44242858886719 80.20354461669922 102.4905776977539 78.02301788330078 102.6617431640625 74.86632537841797 C 102.83997344970703 71.71586608886719 102.83293151855469 68.59362030029297 102.64061737060547 65.49959564208984 C 102.44871520996094 62.41221618652344 101.75565338134766 58.891761779785156 100.56141662597656 54.938236236572266 C 101.84161376953125 54.364376068115234 103.22029113769531 54.03153991699219 104.69744110107422 53.939727783203125 C 106.16793823242188 53.848323822021484 107.39229583740234 54.20305252075195 108.37053680419922 55.00390625 C 109.34210968017578 55.80517578125 109.87256622314453 56.92442321777344 109.96190643310547 58.36165237426758 C 110.0078125 59.10022735595703 109.97662353515625 60.90897750854492 109.86835479736328 63.787906646728516 C 111.21751403808594 60.992156982421875 112.99488830566406 58.530487060546875 115.20047760009766 56.40289306640625 C 117.41230773925781 54.26823043823242 119.68597412109375 53.128318786621094 122.02146911621094 52.983150482177734 C 126.15348815917969 52.726318359375 128.35702514648438 54.810298919677734 128.63204956054688 59.23509216308594 C 128.70069885253906 60.33962631225586 128.71380615234375 61.571189880371094 128.6713409423828 62.929771423339844 C 130.01014709472656 59.96767807006836 131.80982971191406 57.32761001586914 134.0703887939453 55.00957489013672 C 136.3309326171875 52.6915397644043 138.64892578125 51.45869827270508 141.0243377685547 51.31105041503906 C 145.15635681152344 51.05421447753906 147.35989379882812 53.1381950378418 147.63491821289062 57.56298828125 ZM 167.15379333496094 88.2513656616211 C 167.15379333496094 88.2513656616211 166.060791015625 87.96455383300781 163.8748016357422 87.39092254638672 C 161.6952667236328 86.81898498535156 159.90965270996094 84.9822769165039 158.51795959472656 81.88079833984375 C 157.12625122070312 78.77932739257812 157.03111267089844 74.9394302368164 158.23252868652344 70.3611068725586 C 159.4356231689453 65.77632904052734 161.84994506835938 62.15727996826172 165.4754638671875 59.50394821166992 C 169.09454345703125 56.84892272949219 173.04493713378906 56.08319854736328 177.32664489746094 57.20676803588867 C 186.1350860595703 59.51821517944336 189.23805236816406 65.6327133178711 186.63555908203125 75.5502700805664 C 185.417236328125 80.19307708740234 182.9558868408203 83.7549819946289 179.2515106201172 86.23599243164062 C 175.54544067382812 88.72344970703125 171.51287841796875 89.3952407836914 167.15379333496094 88.2513656616211 M 169.42755126953125 62.13316345214844 C 168.10769653320312 64.24739837646484 167.14572143554688 66.4555435180664 166.5416259765625 68.75759887695312 C 165.93923950195312 71.05321502685547 165.54873657226562 72.85648345947266 165.37014770507812 74.16741943359375 C 165.19801330566406 75.48004913330078 165.1645050048828 76.82905578613281 165.2696533203125 78.21444702148438 C 165.50201416015625 81.0323715209961 166.95945739746094 82.79329681396484 169.6419677734375 83.49722290039062 C 172.31802368164062 84.19945526123047 174.2694854736328 83.94648742675781 175.49630737304688 82.73831176757812 C 176.72145080566406 81.53659057617188 177.72406005859375 79.44937896728516 178.50413513183594 76.47669219970703 C 180.72250366210938 68.02291107177734 179.82948303222656 63.2706184387207 175.82505798339844 62.219810485839844 C 173.5229949951172 61.61572265625 171.3905029296875 61.58683776855469 169.42755126953125 62.13316345214844 ZM 195.3732147216797 97.3343734741211 C 194.02427673339844 97.16654968261719 192.71627807617188 96.7405014038086 191.44924926757812 96.05623626708984 C 190.18807983398438 95.37513732910156 189.3319091796875 94.5263442993164 188.8807373046875 93.50985717773438 C 188.4205322265625 92.4960708618164 188.47869873046875 91.45537567138672 189.05526733398438 90.38778686523438 C 189.628662109375 89.32605743408203 190.8398895263672 87.47607421875 192.68898010253906 84.83784484863281 C 194.53219604492188 82.19644927978516 196.1697540283203 79.55005645751953 197.60165405273438 76.89866638183594 C 199.03353881835938 74.24727630615234 200.30056762695312 70.91207885742188 201.40274047851562 66.89307403564453 C 202.78688049316406 67.07990264892578 204.0391387939453 67.47586059570312 205.15953063964844 68.08092498779297 C 206.27992248535156 68.68599700927734 207.04052734375 69.58546447753906 207.4413604736328 70.77934265136719 C 207.8480682373047 71.97637939453125 207.7092742919922 73.20841979980469 207.02500915527344 74.47545623779297 C 206.67337036132812 75.12657165527344 206.04373168945312 76.03290557861328 205.13609313964844 77.1944580078125 C 204.22845458984375 78.35601043701172 203.58120727539062 79.25284576416016 203.1943817138672 79.88494873046875 C 206.3350372314453 77.43659973144531 209.36293029785156 75.82139587402344 212.2780303955078 75.03934478759766 C 215.19313049316406 74.25728607177734 217.6068115234375 74.38262939453125 219.51910400390625 75.41536712646484 C 220.8565216064453 76.13764953613281 221.66775512695312 77.18190002441406 221.95278930664062 78.54811096191406 C 222.23782348632812 79.91432189941406 221.9954376220703 81.31013488769531 221.2256317138672 82.73554992675781 C 220.45582580566406 84.16096496582031 219.4709930419922 85.12171936035156 218.27113342285156 85.6178207397461 C 217.07127380371094 86.1139144897461 215.94049072265625 86.07527160644531 214.87875366210938 85.50188446044922 C 213.81117248535156 84.92532348632812 213.0133514404297 84.35428619384766 212.4853057861328 83.78878021240234 C 212.8253173828125 83.41172790527344 213.09353637695312 83.0413589477539 213.28994750976562 82.67767333984375 C 214.0882568359375 81.199462890625 213.96534729003906 80.17841339111328 212.9212188720703 79.6145248413086 C 211.33155822753906 78.75602722167969 208.97994995117188 79.5468978881836 205.86639404296875 81.9871597290039 C 202.74966430664062 84.43328094482422 200.20587158203125 86.91984558105469 198.23500061035156 89.44684600830078 C 196.95643615722656 92.24923706054688 196.0025177001953 94.87841033935547 195.3732147216797 97.3343734741211 ZM 219.48512268066406 100.73729705810547 L 226.10557556152344 94.81773376464844 C 228.88331604003906 91.96736145019531 231.106201171875 88.86486053466797 232.7742462158203 85.51022338867188 C 233.93975830078125 85.95719146728516 235.12411499023438 86.76693725585938 236.32728576660156 87.93944549560547 C 238.67633056640625 90.22863006591797 238.57598876953125 92.68143463134766 236.0262451171875 95.2978515625 C 234.88165283203125 96.47237396240234 233.10484313964844 97.97564697265625 230.6958465576172 99.80764770507812 C 228.2820587158203 101.63500213623047 226.6820068359375 102.9521255493164 225.89569091796875 103.7590103149414 C 225.10935974121094 104.56590270996094 224.5513916015625 105.16712188720703 224.22177124023438 105.56267547607422 C 223.89215087890625 105.9582290649414 223.54273986816406 106.46482849121094 223.17355346679688 107.08246612548828 C 222.37777709960938 108.25248718261719 222.47166442871094 109.31674194335938 223.4552001953125 110.27522277832031 C 224.43875122070312 111.23370361328125 226.26168823242188 111.47889709472656 228.92401123046875 111.01080322265625 C 231.5863494873047 110.54271697998047 234.19183349609375 109.68877410888672 236.74049377441406 108.44898986816406 C 239.29391479492188 107.21385192871094 241.11500549316406 106.03766632080078 242.20376586914062 104.9204330444336 C 244.31703186035156 102.45579528808594 245.76930236816406 100.46406555175781 246.56057739257812 98.94522857666016 C 247.845458984375 99.5085220336914 248.97967529296875 100.2694091796875 249.96322631835938 101.22789001464844 C 250.94676208496094 102.18637084960938 251.4702606201172 103.29693603515625 251.53370666503906 104.55958557128906 C 251.5923614501953 105.81758117675781 251.11920166015625 106.96222686767578 250.1141815185547 107.99351501464844 C 234.48538208007812 124.03102111816406 222.17596435546875 130.78775024414062 213.1859588623047 128.26368713378906 C 211.1748046875 127.68148803710938 209.33131408691406 126.57381439208984 207.6554718017578 124.940673828125 C 205.98439025878906 123.31218719482422 204.9537811279297 121.44678497314453 204.5636444091797 119.34446716308594 C 204.17361450195312 117.25157928466797 204.7509765625 115.41256713867188 206.29571533203125 113.82743835449219 C 207.32862854003906 112.76750183105469 208.59266662597656 112.26324462890625 210.0878143310547 112.31465911865234 C 211.5782928466797 112.37085723876953 212.86782836914062 112.92937469482422 213.9564208984375 113.99021911621094 C 214.19036865234375 114.21820831298828 214.45608520507812 114.53299713134766 214.75355529785156 114.93460083007812 C 214.29061889648438 115.22815704345703 213.91490173339844 115.52294921875 213.62643432617188 115.81896209716797 C 211.1092529296875 118.40196228027344 210.74827575683594 120.56819152832031 212.54348754882812 122.3176498413086 C 213.62728881835938 123.37384033203125 215.18313598632812 123.74505615234375 217.2110137939453 123.43130493164062 C 219.23411560058594 123.11289978027344 221.34117126464844 122.35968017578125 223.53219604492188 121.1716537475586 C 227.9366455078125 118.70572662353516 231.5137939453125 116.06190490722656 234.26361083984375 113.24018096923828 C 231.06333923339844 114.76653289794922 227.9992218017578 115.51795959472656 225.07125854492188 115.49446105957031 C 222.13864135742188 115.47573852539062 219.7914276123047 114.6079330444336 218.02964782714844 112.89104461669922 C 214.47743225097656 109.4293441772461 214.96258544921875 105.37809753417969 219.48512268066406 100.73729705810547 Z" transform="matrix(1, 0, 0, 1, 15.10830307006836, 78.33935546875)" style="fill: rgb(229, 222, 222); white-space: pre; color: rgb(125, 143, 149); stroke: rgb(0, 0, 0); -webkit-text-stroke: rgb(0, 0, 0);"/><path d="M 84.18215942382812 250.79803466796875 L 90.16357421875 253.5853271484375 C 92.3082275390625 254.79034423828125 92.76660919189453 256.48553466796875 91.53872680664062 258.6708679199219 C 90.83660888671875 259.9204406738281 89.5827865600586 261.7776794433594 87.7772445678711 264.2425537109375 C 85.96590423583984 266.70416259765625 84.59813690185547 268.75738525390625 83.67395782470703 270.4021911621094 C 82.69725799560547 270.0445861816406 80.40165710449219 269.4620666503906 76.78713989257812 268.6546630859375 C 73.17262268066406 267.8472900390625 70.32791137695312 266.86065673828125 68.25300598144531 265.69482421875 C 63.17908477783203 262.8439025878906 60.22939682006836 259.1180419921875 59.40393829345703 254.51724243164062 C 58.58174514770508 249.91062927246094 59.69734191894531 244.89019775390625 62.75072479248047 239.45591735839844 C 64.91911315917969 235.5967254638672 67.61405944824219 232.45394897460938 70.83556365966797 230.0276336669922 C 74.05706024169922 227.60130310058594 77.62439727783203 226.17222595214844 81.53756713867188 225.74038696289062 C 85.44818878173828 225.2994842529297 89.09481048583984 226.02932739257812 92.47742462158203 227.92994689941406 C 95.8542251586914 229.82728576660156 98.23638916015625 232.20191955566406 99.62390899658203 235.05386352539062 C 101.00562286376953 237.90252685546875 100.94374084472656 240.6665496826172 99.43827819824219 243.3459014892578 C 98.59574127197266 244.8454132080078 97.45118713378906 245.8616943359375 96.00462341308594 246.394775390625 C 94.5555191040039 246.9187774658203 93.15095520019531 246.79869079589844 91.79093170166016 246.03453063964844 C 90.430908203125 245.27037048339844 89.57334899902344 244.57823181152344 89.21825408935547 243.9581298828125 C 89.69116973876953 243.37503051757812 90.10887145996094 242.76092529296875 90.47135925292969 242.11578369140625 C 91.53596496582031 240.22105407714844 91.86701202392578 238.3729705810547 91.46450805664062 236.57154846191406 C 91.06199645996094 234.77012634277344 89.87850952148438 233.3175048828125 87.9140396118164 232.21371459960938 C 85.9495620727539 231.10992431640625 83.71742248535156 230.7274932861328 81.21761322021484 231.06642150878906 C 79.36012268066406 231.94976806640625 77.43013763427734 233.49972534179688 75.42765045166016 235.71629333496094 C 73.43424987792969 237.93031311035156 71.76318359375 240.23751831054688 70.41447448730469 242.6378936767578 C 68.24607849121094 246.49710083007812 67.2127914428711 250.0917510986328 67.3145980834961 253.42184448242188 C 67.42549133300781 256.7493896484375 69.10830688476562 259.3275451660156 72.3630599975586 261.15631103515625 C 74.75762176513672 262.50177001953125 77.38423919677734 263.0599670410156 80.2428970336914 262.8309020996094 C 81.16614532470703 261.514404296875 82.36090087890625 259.55133056640625 83.82717895507812 256.94171142578125 C 82.15576171875 256.5684509277344 80.927734375 256.1614074707031 80.14310455322266 255.7205352783203 C 78.17282104492188 254.6134796142578 77.77059173583984 253.02249145507812 78.93643188476562 250.94760131835938 C 79.43933868408203 250.0525360107422 80.15181732177734 249.20640563964844 81.07386016845703 248.40921020507812 C 81.85578155517578 249.2767791748047 82.89188385009766 250.07305908203125 84.18215942382812 250.79803466796875 ZM 126.95960235595703 254.5117950439453 C 125.00092315673828 258.9465026855469 123.58484649658203 263.4898681640625 122.71136474609375 268.14190673828125 C 121.83665466308594 272.8005065917969 121.49596405029297 277.5050964355469 121.68928527832031 282.2557067871094 C 120.15021514892578 282.46868896484375 118.61407470703125 282.43121337890625 117.08087158203125 282.1433410644531 C 115.54766082763672 281.85546875 114.56454467773438 281.2028503417969 114.13152313232422 280.1854553222656 C 113.6997299194336 279.1615295410156 113.64437866210938 277.79449462890625 113.9654769897461 276.0843811035156 C 114.28780364990234 274.3677062988281 114.99092864990234 272.0679626464844 116.07486724853516 269.1851501464844 C 112.06128692626953 274.7738037109375 108.57308197021484 278.12432861328125 105.61026000976562 279.2366638183594 C 104.26155090332031 279.7363586425781 102.94181060791016 279.8650207519531 101.65103149414062 279.6226806640625 C 98.5911636352539 279.0481262207031 96.42679595947266 277.46148681640625 95.15790557861328 274.8627014160156 C 93.89434814453125 272.27166748046875 93.5805892944336 269.2824401855469 94.21662902832031 265.89495849609375 C 95.1848373413086 260.7384033203125 97.46597290039062 256.4829406738281 101.06004333496094 253.1285858154297 C 104.65411376953125 249.7742156982422 108.73785400390625 248.52638244628906 113.31126403808594 249.38510131835938 C 117.88468170166016 250.2438201904297 122.43412780761719 251.9527130126953 126.95960235595703 254.5117950439453 M 118.35523986816406 256.6608581542969 C 116.34102630615234 255.61114501953125 114.59024810791016 254.94664001464844 113.1029052734375 254.66737365722656 C 110.0758056640625 254.0989990234375 107.69371032714844 254.34022521972656 105.95662689208984 255.39105224609375 C 103.95118713378906 258.5213928222656 102.61936950683594 261.8392639160156 101.96118927001953 265.3446960449219 C 101.61302185058594 267.1989440917969 101.55274200439453 269.12762451171875 101.78034210205078 271.13067626953125 C 102.00794219970703 273.1337585449219 102.72782135009766 274.24908447265625 103.93997192382812 274.4766845703125 C 105.34868621826172 274.7411804199219 107.54973602294922 273.0075988769531 110.54312133789062 269.27587890625 C 113.5442886352539 265.53887939453125 116.14832305908203 261.3338623046875 118.35523986816406 256.6608581542969 ZM 174.2388916015625 252.93426513671875 L 175.9462890625 265.9972839355469 C 176.644287109375 269.91558837890625 177.8704833984375 273.5299072265625 179.62489318847656 276.8402099609375 C 178.58251953125 277.5269775390625 177.33279418945312 278.0001525878906 175.875732421875 278.25970458984375 C 172.44309997558594 278.8711853027344 170.38479614257812 277.25714111328125 169.70083618164062 273.4176025390625 C 169.39218139648438 271.68487548828125 169.09622192382812 268.7309875488281 168.81295776367188 264.55596923828125 C 168.52197265625 260.37554931640625 168.28294372558594 257.76025390625 168.0958709716797 256.7101135253906 C 167.7369384765625 254.69517517089844 166.73048400878906 253.83502197265625 165.07652282714844 254.12965393066406 C 163.25848388671875 254.45350646972656 161.420166015625 256.6973571777344 159.5615997314453 260.8611755371094 C 157.69529724121094 265.01959228515625 156.94920349121094 268.14892578125 157.32334899902344 270.24920654296875 C 158.09503173828125 273.4027404785156 159.2274627685547 276.4717102050781 160.72067260742188 279.4560852050781 C 159.2713623046875 280.2153625488281 158.02163696289062 280.68853759765625 156.9715118408203 280.8756103515625 C 153.53887939453125 281.487060546875 151.48117065429688 279.8763122558594 150.79837036132812 276.0433349609375 C 150.51075744628906 274.4287414550781 150.25161743164062 271.6816101074219 150.02098083496094 267.80194091796875 C 149.78494262695312 263.92999267578125 149.5803985595703 261.5083312988281 149.40736389160156 260.5369567871094 C 149.04843139648438 258.5220031738281 147.96322631835938 257.6758728027344 146.1517333984375 257.9985656738281 C 144.89813232421875 258.22186279296875 143.62948608398438 259.40606689453125 142.3457794189453 261.55108642578125 C 141.06207275390625 263.6961364746094 140.06167602539062 265.9870910644531 139.3446044921875 268.4239501953125 C 138.63525390625 270.8662109375 138.35986328125 272.7605285644531 138.51844787597656 274.1069030761719 C 139.3404083251953 277.5426940917969 140.30116271972656 280.59820556640625 141.40072631835938 283.27349853515625 C 140.1942596435547 283.9895324707031 138.8953094482422 284.4714660644531 137.50389099121094 284.7193298339844 C 136.11245727539062 284.9671936035156 134.920654296875 284.8341369628906 133.928466796875 284.3201904296875 C 132.94403076171875 283.8116149902344 132.3454132080078 282.9600524902344 132.1326141357422 281.7655334472656 C 131.92098999023438 280.57757568359375 131.7203369140625 278.40576171875 131.5306396484375 275.2501220703125 C 131.3486785888672 272.0998840332031 130.98585510253906 268.998779296875 130.44219970703125 265.94683837890625 C 129.8997039794922 262.90142822265625 128.80995178222656 259.48291015625 127.17294311523438 255.6912384033203 C 128.37940979003906 254.9752197265625 129.71116638183594 254.4874267578125 131.16822814941406 254.22787475585938 C 132.6187286376953 253.969482421875 133.8755340576172 254.182373046875 134.93865966796875 254.8665313720703 C 135.99522399902344 255.55184936523438 136.6497802734375 256.6033630371094 136.90232849121094 258.0210266113281 C 137.0321044921875 258.74957275390625 137.20726013183594 260.5500793457031 137.4277801513672 263.422607421875 C 138.4495391845703 260.4913024902344 139.93478393554688 257.8431396484375 141.883544921875 255.47804260253906 C 143.8376922607422 253.105224609375 145.96664428710938 251.713623046875 148.27037048339844 251.30323791503906 C 152.34620666503906 250.57717895507812 154.7728729248047 252.39646911621094 155.5503692626953 256.7610778808594 C 155.7444610595703 257.8506164550781 155.8978271484375 259.0726623535156 156.01046752929688 260.4272155761719 C 157.00299072265625 257.33184814453125 158.49008178710938 254.50389099121094 160.4717254638672 251.94334411621094 C 162.45338439941406 249.38278198242188 164.6157684326172 247.89381408691406 166.95887756347656 247.47640991210938 C 171.0347137451172 246.7503662109375 173.46139526367188 248.56964111328125 174.2388916015625 252.93426513671875 ZM 187.68572998046875 257.1139221191406 C 189.2321319580078 259.6300354003906 190.85256958007812 261.3689880371094 192.5470428466797 262.330810546875 C 194.24371337890625 263.2834167480469 196.03488159179688 263.1802978515625 197.9205322265625 262.0213623046875 C 199.8061981201172 260.8624267578125 200.89195251464844 259.3186950683594 201.1778106689453 257.3901672363281 C 201.45448303222656 255.45947265625 201.0343017578125 253.58535766601562 199.91726684570312 251.76785278320312 C 201.1043243408203 251.0382843017578 202.31845092773438 250.70289611816406 203.55966186523438 250.76168823242188 C 204.79736328125 250.81480407714844 205.73912048339844 251.36672973632812 206.38491821289062 252.41748046875 C 207.7148895263672 254.58143615722656 207.67372131347656 257.09906005859375 206.2613983154297 259.9703063964844 C 204.8455810546875 262.83587646484375 202.86257934570312 265.0523376464844 200.31239318847656 266.61968994140625 C 196.3309326171875 269.06671142578125 192.7869873046875 269.7619934082031 189.68055725097656 268.7054748535156 C 186.57762145996094 267.6546325683594 183.7275848388672 265.0163879394531 181.13046264648438 260.7906799316406 C 178.52984619140625 256.5592956542969 177.54019165039062 252.26901245117188 178.16152954101562 247.91978454589844 C 178.78506469726562 243.5614013671875 181.08755493164062 240.15869140625 185.06903076171875 237.711669921875 C 187.7952880859375 236.03610229492188 190.36988830566406 235.3105926513672 192.7928466796875 235.53514099121094 C 195.21229553222656 235.75401306152344 197.22142028808594 237.16409301757812 198.8201904296875 239.76539611816406 C 200.4224395751953 242.3723907470703 200.44647216796875 245.05337524414062 198.89227294921875 247.80838012695312 C 197.34156799316406 250.56906127929688 194.87081909179688 252.9913787841797 191.48004150390625 255.07537841796875 C 190.29298400878906 255.80494689941406 189.02821350097656 256.4844665527344 187.68572998046875 257.1139221191406 M 185.19207763671875 252.94200134277344 C 186.36630249023438 252.50985717773438 187.5299072265625 251.93946838378906 188.68287658691406 251.2308349609375 C 191.19898986816406 249.68443298339844 193.0249481201172 247.91270446777344 194.16075134277344 245.91566467285156 C 193.85775756835938 244.95159912109375 193.55615234375 244.22532653808594 193.25595092773438 243.73687744140625 C 192.50193786621094 242.5100555419922 191.49386596679688 241.8502197265625 190.23171997070312 241.75733947753906 C 188.9730682373047 241.67015075683594 187.58265686035156 242.09432983398438 186.06048583984375 243.02984619140625 C 184.54400634765625 243.96188354492188 183.47256469726562 245.29336547851562 182.84616088867188 247.02427673339844 C 183.33843994140625 249.2257537841797 184.1204071044922 251.19833374023438 185.19207763671875 252.94200134277344 Z" transform="matrix(1, 0, 0, 1, 13.198551177978516, -6.299020290374756)" style="fill: rgb(229, 222, 222); white-space: pre; color: rgb(125, 143, 149); stroke: rgb(0, 0, 0); -webkit-text-stroke: rgb(0, 0, 0);"/></g></svg>